<?xml version="1.0"?>
<svg xmlns="http://www.w3.org/2000/svg" version="1.1" width="500px" height="500px" viewBox="0 0 200 200" style="overflow:hidden!important;">
  <defs id="SvgjsDefs5066">
    <radialGradient id="SvgjsRadialGradient5127" cx="100" cy="113" r="40" gradientUnits="userSpaceOnUse" class="svga-on-canvas-facehighlight-gradient-single-0">
      <stop id="SvgjsStop5128" stop-opacity="0.5" stop-color="#fff4f3" offset="0"/>
      <stop id="SvgjsStop5129" stop-opacity="0" stop-color="#f3d4cf" offset="0.9"/>
    </radialGradient>
    <radialGradient id="SvgjsRadialGradient5131" cx="100" cy="57" r="36" gradientUnits="userSpaceOnUse" class="svga-on-canvas-facehighlight-gradient-single-1">
      <stop id="SvgjsStop5132" stop-opacity="0.5" stop-color="#fff4f3" offset="0"/>
      <stop id="SvgjsStop5133" stop-opacity="0" stop-color="#f3d4cf" offset="0.9"/>
    </radialGradient>
    <radialGradient id="SvgjsRadialGradient5212" cx="-558.588" cy="-490.918" r="84.646" gradientTransform="matrix(0.096 -0.0248 0.0245 0.0961 140.5478 120.3577)" gradientUnits="userSpaceOnUse" class="svga-on-canvas-eyesiris-gradient-left-1">
      <stop id="SvgjsStop5213" stop-opacity="0.8" stop-color="#ffffff" offset="0"/>
      <stop id="SvgjsStop5214" stop-opacity="0" stop-color="#ffffff" offset="1"/>
    </radialGradient>
    <radialGradient id="SvgjsRadialGradient5216" cx="-565.337" cy="-492.691" r="84.644" gradientTransform="matrix(0.0991 8.856325e-004 -0.0011 0.0991 130.3774 136.3533)" gradientUnits="userSpaceOnUse" class="svga-on-canvas-eyesiris-gradient-left-2">
      <stop id="SvgjsStop5217" stop-opacity="0.8" stop-color="#ffffff" offset="0"/>
      <stop id="SvgjsStop5218" stop-opacity="0" stop-color="#ffffff" offset="1"/>
    </radialGradient>
    <linearGradient id="SvgjsLinearGradient5222" x1="122.283" y1="93.047" x2="123.61" y2="91.466" gradientTransform="matrix(1 0 0 1 -52 0)" gradientUnits="userSpaceOnUse" class="svga-on-canvas-eyesiris-gradient-left-5">
      <stop id="SvgjsStop5223" stop-opacity="1" stop-color="#ffffff" offset="0"/>
      <stop id="SvgjsStop5224" stop-opacity="0" stop-color="#ffffff" offset="1"/>
    </linearGradient>
    <linearGradient id="SvgjsLinearGradient5226" x1="127" y1="85" x2="125" y2="87" gradientTransform="matrix(1 0 0 1 -50 0)" gradientUnits="userSpaceOnUse" class="svga-on-canvas-eyesiris-gradient-left-6">
      <stop id="SvgjsStop5227" stop-opacity="1" stop-color="#ffffff" offset="0"/>
      <stop id="SvgjsStop5228" stop-opacity="0" stop-color="#ffffff" offset="1"/>
    </linearGradient>
    <linearGradient id="SvgjsLinearGradient5230" x1="130" y1="81" x2="126" y2="85" gradientTransform="matrix(1 0 0 1 -50 0)" gradientUnits="userSpaceOnUse" class="svga-on-canvas-eyesiris-gradient-left-7">
      <stop id="SvgjsStop5231" stop-opacity="1" stop-color="#ffffff" offset="0"/>
      <stop id="SvgjsStop5232" stop-opacity="0" stop-color="#ffffff" offset="1"/>
    </linearGradient>
    <radialGradient id="SvgjsRadialGradient5235" cx="-578.76" cy="-490.73" r="84.646" gradientTransform="matrix(0.096 -0.0248 0.0245 0.0961 192.4794 119.8404)" gradientUnits="userSpaceOnUse" class="svga-on-canvas-eyesiris-gradient-right-1">
      <stop id="SvgjsStop5236" stop-opacity="0.8" stop-color="#ffffff" offset="0"/>
      <stop id="SvgjsStop5237" stop-opacity="0" stop-color="#ffffff" offset="1"/>
    </radialGradient>
    <radialGradient id="SvgjsRadialGradient5239" cx="-584.778" cy="-487.329" r="84.644" gradientTransform="matrix(0.0991 8.856325e-004 -0.0011 0.0991 182.3104 135.839)" gradientUnits="userSpaceOnUse" class="svga-on-canvas-eyesiris-gradient-right-2">
      <stop id="SvgjsStop5240" stop-opacity="0.8" stop-color="#ffffff" offset="0"/>
      <stop id="SvgjsStop5241" stop-opacity="0" stop-color="#ffffff" offset="1"/>
    </radialGradient>
    <linearGradient id="SvgjsLinearGradient5245" x1="120.284" y1="93.047" x2="121.611" y2="91.467" gradientUnits="userSpaceOnUse" class="svga-on-canvas-eyesiris-gradient-right-5">
      <stop id="SvgjsStop5246" stop-opacity="1" stop-color="#ffffff" offset="0"/>
      <stop id="SvgjsStop5247" stop-opacity="0" stop-color="#ffffff" offset="1"/>
    </linearGradient>
    <linearGradient id="SvgjsLinearGradient5249" x1="127" y1="85" x2="125" y2="87" gradientUnits="userSpaceOnUse" class="svga-on-canvas-eyesiris-gradient-right-6">
      <stop id="SvgjsStop5250" stop-opacity="1" stop-color="#ffffff" offset="0"/>
      <stop id="SvgjsStop5251" stop-opacity="0" stop-color="#ffffff" offset="1"/>
    </linearGradient>
    <linearGradient id="SvgjsLinearGradient5253" x1="130" y1="81" x2="126" y2="85" gradientUnits="userSpaceOnUse" class="svga-on-canvas-eyesiris-gradient-right-7">
      <stop id="SvgjsStop5254" stop-opacity="1" stop-color="#ffffff" offset="0"/>
      <stop id="SvgjsStop5255" stop-opacity="0" stop-color="#ffffff" offset="1"/>
    </linearGradient>
    <linearGradient id="SvgjsLinearGradient5261" x1="100" y1="141" x2="100" y2="138" gradientUnits="userSpaceOnUse" class="svga-on-canvas-mouth-gradient-single-0">
      <stop id="SvgjsStop5262" stop-opacity="1" stop-color="#ebc3bd" offset="0.1"/>
      <stop id="SvgjsStop5263" stop-opacity="1" stop-color="#e4b3ab" offset="1"/>
    </linearGradient>
    <radialGradient id="SvgjsRadialGradient5316" cx="127" cy="87.834" r="14" gradientTransform="matrix(-1 0 0 1 200 0)" gradientUnits="userSpaceOnUse" class="svga-on-canvas-eyesback-gradient-left-0">
      <stop id="SvgjsStop5317" stop-opacity="1" stop-color="#ffffff" offset="0"/>
      <stop id="SvgjsStop5318" stop-opacity="1" stop-color="#fdfefe" offset="0.544"/>
      <stop id="SvgjsStop5319" stop-opacity="1" stop-color="#f6f8f9" offset="0.74"/>
      <stop id="SvgjsStop5320" stop-opacity="1" stop-color="#eaeff2" offset="0.879"/>
      <stop id="SvgjsStop5321" stop-opacity="1" stop-color="#d9e3e8" offset="0.992"/>
      <stop id="SvgjsStop5322" stop-opacity="1" stop-color="#d8e2e7" offset="1"/>
    </radialGradient>
    <radialGradient id="SvgjsRadialGradient5324" cx="127" cy="87.834" r="14" gradientUnits="userSpaceOnUse" class="svga-on-canvas-eyesback-gradient-right-0">
      <stop id="SvgjsStop5325" stop-opacity="1" stop-color="#ffffff" offset="0"/>
      <stop id="SvgjsStop5326" stop-opacity="1" stop-color="#fdfefe" offset="0.544"/>
      <stop id="SvgjsStop5327" stop-opacity="1" stop-color="#f6f8f9" offset="0.74"/>
      <stop id="SvgjsStop5328" stop-opacity="1" stop-color="#eaeff2" offset="0.879"/>
      <stop id="SvgjsStop5329" stop-opacity="1" stop-color="#d9e3e8" offset="0.992"/>
      <stop id="SvgjsStop5330" stop-opacity="1" stop-color="#d8e2e7" offset="1"/>
    </radialGradient>
    <radialGradient id="SvgjsRadialGradient5332" cx="127" cy="87.834" r="14" gradientTransform="matrix(-1 0 0 1 200 0)" gradientUnits="userSpaceOnUse" class="svga-on-canvas-eyesfront-gradient-left-0">
      <stop id="SvgjsStop5333" stop-opacity="1" stop-color="#ffffff" offset="0"/>
      <stop id="SvgjsStop5334" stop-opacity="1" stop-color="#fdfefe" offset="0.544"/>
      <stop id="SvgjsStop5335" stop-opacity="1" stop-color="#f6f8f9" offset="0.74"/>
      <stop id="SvgjsStop5336" stop-opacity="1" stop-color="#eaeff2" offset="0.879"/>
      <stop id="SvgjsStop5337" stop-opacity="1" stop-color="#d9e3e8" offset="0.992"/>
      <stop id="SvgjsStop5338" stop-opacity="1" stop-color="#d8e2e7" offset="1"/>
    </radialGradient>
    <radialGradient id="SvgjsRadialGradient5342" cx="125.16" cy="86.942" fx="138.734" fy="85.449" r="18.705" gradientTransform="matrix(0.9998 0.0208 0.0131 -0.6281 -51.4298 138.9481)" gradientUnits="userSpaceOnUse" class="svga-on-canvas-eyesfront-gradient-left-3">
      <stop id="SvgjsStop5343" stop-opacity="1" stop-color="#e4b3ab" offset="0"/>
      <stop id="SvgjsStop5344" stop-opacity="0.3" stop-color="#e4b3ab" offset="0.7"/>
      <stop id="SvgjsStop5345" stop-opacity="0" stop-color="#f3d4cf" offset="1"/>
    </radialGradient>
    <radialGradient id="SvgjsRadialGradient5347" cx="67.721" cy="109.165" r="29.505" gradientTransform="matrix(1.0322 -0.0541 0.0541 1.0322 -5.8613 6.0176)" gradientUnits="userSpaceOnUse" class="svga-on-canvas-eyesfront-gradient-left-4">
      <stop id="SvgjsStop5348" stop-opacity="0" stop-color="#000000" offset="0.95"/>
      <stop id="SvgjsStop5349" stop-opacity="0.3" stop-color="#000000" offset="1"/>
    </radialGradient>
    <radialGradient id="SvgjsRadialGradient5353" cx="127" cy="87.834" r="14" gradientUnits="userSpaceOnUse" class="svga-on-canvas-eyesfront-gradient-right-0">
      <stop id="SvgjsStop5354" stop-opacity="1" stop-color="#ffffff" offset="0"/>
      <stop id="SvgjsStop5355" stop-opacity="1" stop-color="#fdfefe" offset="0.544"/>
      <stop id="SvgjsStop5356" stop-opacity="1" stop-color="#f6f8f9" offset="0.74"/>
      <stop id="SvgjsStop5357" stop-opacity="1" stop-color="#eaeff2" offset="0.879"/>
      <stop id="SvgjsStop5358" stop-opacity="1" stop-color="#d9e3e8" offset="0.992"/>
      <stop id="SvgjsStop5359" stop-opacity="1" stop-color="#d8e2e7" offset="1"/>
    </radialGradient>
    <radialGradient id="SvgjsRadialGradient5363" cx="125.16" cy="86.942" fx="138.734" fy="85.449" r="18.705" gradientTransform="matrix(-0.9998 0.0208 -0.0131 -0.6281 251.4298 138.9481)" gradientUnits="userSpaceOnUse" class="svga-on-canvas-eyesfront-gradient-right-3">
      <stop id="SvgjsStop5364" stop-opacity="1" stop-color="#e4b3ab" offset="0"/>
      <stop id="SvgjsStop5365" stop-opacity="0.3" stop-color="#e4b3ab" offset="0.7"/>
      <stop id="SvgjsStop5366" stop-opacity="0" stop-color="#f3d4cf" offset="1"/>
    </radialGradient>
    <radialGradient id="SvgjsRadialGradient5368" cx="67.721" cy="109.165" r="29.506" gradientTransform="matrix(-1.0322 -0.0541 -0.0541 1.0322 205.8613 6.0176)" gradientUnits="userSpaceOnUse" class="svga-on-canvas-eyesfront-gradient-right-4">
      <stop id="SvgjsStop5369" stop-opacity="0" stop-color="#000000" offset="0.95"/>
      <stop id="SvgjsStop5370" stop-opacity="0.3" stop-color="#000000" offset="1"/>
    </radialGradient>
    <linearGradient id="SvgjsLinearGradient5418" x1="99.98" y1="171.27" x2="99.98" y2="136.351" gradientUnits="userSpaceOnUse" class="svga-on-canvas-chinshadow-gradient-single-0">
      <stop id="SvgjsStop5419" stop-opacity="0.8" stop-color="#e4b3ab" offset="0"/>
      <stop id="SvgjsStop5420" stop-opacity="1" stop-color="#c5796d" offset="0.7"/>
    </linearGradient>
  </defs>
  <g id="svga-group-wrapper">
    <g id="svga-group-backs-single">
      <path id="SvgjsPath5280" d="M225 225H-25V-25h250V225z" fill="#14305c" stroke-width="none" opacity="1" stroke="none"/>
    </g>
    <g id="svga-group-humanwrap-move" transform="matrix(1,0,0,1,0,0)">
      <g id="svga-group-humanwrap" transform="matrix(1,0,0,1,0,0)">
        <g id="svga-group-hair-back-move" transform="matrix(1,0,0,1,0,0)">
          <g id="svga-group-hair-back" transform="matrix(1,0,0,1,0,0)">
            <path id="SvgjsPath5292" d="M151.582 41.064l-99.508-5.662c0 0-25.074 182.88-25.074 188.596 0 0 100.899 0.72 143.907 0C170.103 216.079 151.582 41.064 151.582 41.064z" fill="#982a13" stroke-width="none" opacity="1" stroke="none"/>
          </g>
        </g>
        <g id="svga-group-humanbody-single">
          <path id="SvgjsPath5134" d="M190.858 199.866c-6.008-10.158-13.474-11.973-19.628-13.936 -6.323-2.016-19.346-3.178-26.449-4.6 -6.86-1.373-23.153-5.789-23.339-13.488 -0.192-8.066 4.291-40.09 4.291-40.09H74.005c0 0 4.487 32.023 4.294 40.09 -0.184 7.699-16.48 12.115-23.341 13.488 -7.104 1.422-20.125 2.584-26.448 4.6 -6.156 1.963-13.624 3.777-19.632 13.936 -3.644 6.16-6.008 16.133-6.008 27.133h194C196.869 215.999 194.509 206.026 190.858 199.866z" fill="#f3d4cf" stroke-width="none" opacity="1" stroke="none"/>
          <path id="SvgjsPath5135" d="M121.442 167.843c2.495 10.929 18.165 13.698 26.293 15.325 21.909 4.379 33.772 5.134 42.297 19.539 2.903 4.916 5.459 15.864 5.962 24.153 1.835 0.291 0.531-17.432-5.136-26.994 -9.742-16.472-29.089-15.135-46.077-18.535C137.921 179.958 121.628 175.542 121.442 167.843L121.442 167.843zM78.558 167.843c-0.186 7.699-16.479 12.115-23.339 13.488 -16.988 3.4-36.335 2.063-46.077 18.535 -5.667 9.563-6.971 27.285-5.136 26.994 0.503-8.289 3.059-19.237 5.962-24.153 8.524-14.405 20.388-15.16 42.297-19.539C60.393 181.541 76.063 178.771 78.558 167.843L78.558 167.843z" fill="#fff4f3" stroke-width="none" opacity="1" stroke="none"/>
          <path id="SvgjsPath5136" d="M51.206 189.513c0 0 28.641 0.299 33.473 1.885 2.314 0.758 8.372 5.633 8.372 5.633s-6.556-3.17-8.658-3.758C79.51 191.909 51.206 189.513 51.206 189.513zM99.795 199.999c2.053-0.041 7.887-3.799 7.887-3.799s-5.574 2.059-7.342 2.16c-1.491 0.086-6.366-1.238-6.366-1.238S98.112 200.032 99.795 199.999zM117.008 192.757c6.75-1.818 29.786-3.23 29.786-3.23s-23.791-0.516-30.51 1.725c-2.252 0.752-7.562 5.16-7.562 5.16S114.786 193.354 117.008 192.757z" fill="#e4b3ab" stroke-width="none" opacity="1" stroke="none"/>
          <path id="SvgjsPath5137" d="M190.858 199.866c-9.741-16.471-29.122-15.142-46.077-18.535 -6.86-1.373-23.153-5.789-23.339-13.488 -0.192-8.066 4.291-40.09 4.291-40.09H74.005c0 0 4.487 32.023 4.294 40.09 -0.184 7.699-16.48 12.115-23.341 13.488 -7.104 1.422-20.125 2.584-26.448 4.6 -6.156 1.963-13.624 3.777-19.632 13.936 -3.644 6.16-6.008 16.133-6.008 27.133h194C196.869 215.999 194.509 206.026 190.858 199.866z" fill="none" stroke="#c5796d" stroke-width="1.5" opacity="1"/>
        </g>
        <g id="svga-group-chinshadow-single">
          <path id="SvgjsPath5417" d="M100.045 171.737c5.593-0.009 13.488-3.608 20.908-8.44 0.448-6.688 1.717-17.243 2.734-25.146 -13.955-1.813-33.739-1.771-47.623 0.105 1.008 7.831 2.258 18.226 2.713 24.89C86.31 168.063 94.37 171.746 100.045 171.737z" fill="url(#SvgjsLinearGradient5418)" opacity="1"/>
        </g>
        <g id="svga-group-clothes-single">
          <path id="SvgjsPath5403" d="M1.21 226.811c-0.09-1.096 0.089-6.144 0.169-7.69 1.305-24.199 9.403-29.321 42.489-39.116 15.99-4.732 20.453-6.269 26.144-18.359 1.614-3.43 3.009-6.393 6.011-7.444 15.289 8.429 28.472 8.16 47.416 1.143 3.516 0.491 4.597 4.978 5.414 8.217 5.254 20.016 37.606 15.497 52.146 23.753 15.091 7.44 15.778 32.33 15.631 39.781 0.003 0.021 0.005 0.039 0.006 0.056C177.005 227.983 25.68 228.386 1.21 226.811z" fill="#601090" stroke-width="none" opacity="1" stroke="none"/>
          <path id="SvgjsPath5404" d="M176.786 216.725c0.847-10.266 1.101-18.312 4.157-27.83 -4.426 14.753 1.476 26.354-7.266 34.423C174.774 220.681 176.516 219.998 176.786 216.725zM24 203c-1.608-3.938-3.672-7.405-4.444-13.604 -0.28 0.134-0.394-0.626-0.666-0.492 1.111 11.097 4.736 15.713 5.84 31.829C24.556 214.957 25.534 206.758 24 203zM121.459 156.274c-0.581 0.144-1.164 0.78-1.75 0.899 8.181 7.474 2.813 10.296 14.771 23.422 0.333-0.167 1.415-0.766 2.718-1.523C129.319 174.611 127.548 163.537 121.459 156.274zM126 180c0.447 1.342 1.101 2.482 1.859 3.603 -0.457 0.174-0.908 0.362-1.37 0.522 -2.363-3.073-4.632-6.134-6.139-12.489 -1.558-6.561-0.884-5.584-5.94-12.752 0.319-0.045 0.954-0.411 1.448-0.491C120.643 165.023 122.608 172.368 126 180zM133.719 181.005c-0.481 0.25-0.969 0.488-1.457 0.725 -6.715-7.001-9.364-15.664-13.832-23.789 0.307-0.059 0.907-0.818 1.188-0.876 3.964 4.215 3.947 6.305 5.151 10.061C126.338 171.828 130.603 177.889 133.719 181.005zM111.212 160.025c3.591 9.259 5.941 16.57 6.595 26.388 -0.469 0.085-0.937 0.17-1.407 0.242 -0.65-5.13-1.491-10.462-1.739-11.689 -0.992-4.915-2.781-11.482-4.401-14.82C110.578 160.113 110.894 160.063 111.212 160.025zM125.619 184.426c-0.555 0.185-1.115 0.352-1.676 0.519 -5.889-7.32-5.781-16.893-10.411-26.211 0.182-0.025 0.465-0.041 0.646-0.068 5.14 8.711 3.5 6.198 5.83 15.03C121.229 178.313 123.751 182.464 125.619 184.426zM115.509 186.785c-0.369 0.053-0.746 0.089-1.12 0.133 -1.339-9.809-1.877-17.542-5.437-26.651 0.249-0.022 0.499-0.037 0.747-0.062C112.922 168.123 114.231 179.352 115.509 186.785zM91.081 160.364c-3.267 8.975-3.961 15.986-4.586 25.452 -0.369-0.063-0.742-0.123-1.105-0.191 0.281-8.057 1.408-18.063 4.9-25.33C90.553 160.322 90.817 160.34 91.081 160.364zM75.389 182.894c-0.419-0.152-0.842-0.297-1.26-0.458 5.056-6.227 7.374-16.511 7.99-24.521 0.332 0.081 0.663 0.15 0.995 0.226C83.353 167.592 79.914 174.831 75.389 182.894zM89.779 160.245c-4.003 7.147-5.299 17.074-5.13 25.23 -0.319-0.063-0.618-0.137-0.93-0.203 -0.337-9.561 0.856-17.051 5.107-25.256C89.146 160.056 89.455 160.212 89.779 160.245zM66.165 179.01c-0.527-0.256-1.054-0.51-1.576-0.774 2.807-1.871 5.653-4.711 7.56-7.97 1.716-2.93 5.611-11.628 6.41-14.44 0.269 0.104 0.543 0.189 0.816 0.282C77.312 165.13 72.909 173.355 66.165 179.01zM73.509 182.205c-0.559-0.215-1.106-0.456-1.661-0.682 4.743-7.656 6.889-16.213 7.854-25.317 0.614 0.203 1.23 1.398 1.847 1.56C80.13 166.507 78.633 174.861 73.509 182.205zM78.229 155.705c-0.65 1.82-1.54 3.55-2.45 5.311 -2.167 4.379-4.345 11.597-11.83 16.88 -0.542-0.276-1.08-0.564-1.618-0.854 6.891-5.698 10.479-14.131 14.154-21.908C77.048 155.346 77.63 155.466 78.229 155.705z" fill="#510181" stroke-width="none" opacity="1" stroke="none"/>
          <path id="SvgjsPath5405" d="M60.172 177.15l-1.928-1.29c-16.809 6.537-42.125 8.875-52 25.125 -3.719 6.119-4.913 15.014-4.913 26.014 2.027-5.485 0.759-14.439 6.636-23.292C19.401 186.481 39.771 188.32 60.172 177.15zM190.033 203.707c5.067 9.34 4.608 17.807 6.636 23.292 0-11-2.281-19.354-4.913-26.014 -7.483-18.933-33.191-16.791-50-23.328l-1.928 1.29C160.229 190.117 178.203 181.902 190.033 203.707z" fill="#70229f" stroke-width="none" opacity="1" stroke="none"/>
          <path id="SvgjsPath5406" d="M181.049 187.226c-14.496-8.229-46.88-3.804-52.1-23.69 -0.653-2.542-1.702-7.762-5.53-8.29 -0.188 0.037-0.761-0.129-0.76-0.129 -15.076 5.88-30.845 7.63-46.67-1.011 -7.111 2.493-5.169 15.246-18.61 21.22 -5.86 2.654-13.6 4.395-24.6 7.98 -25.782 8.41-30.463 16.581-31.5 35.81 -0.073 1.41-0.273 6.859-0.16 7.79 27.119 1.767 181.426 0.968 195.61 0.34 0.01-0.05 0.01-0.1 0-0.149C197.017 212.672 193.824 193.524 181.049 187.226zM123.799 155.824c7.203 2.412-0.831 13.455 15.84 21.791 -2.201 1.354-4.629 2.715-5.159 2.98 -11.958-13.126-6.443-15.043-14.173-23.123C121.739 156.826 122.459 156.244 123.799 155.824zM119.917 157.563c3.964 4.215 3.648 5.807 4.853 9.563 1.568 4.703 5.833 10.764 8.949 13.88 -2.33 1.211-4.75 2.261-7.229 3.12 -2.363-3.073-4.408-6.164-6.039-12.489 -1.438-5.573-0.936-6.018-5.741-12.652C115.709 158.843 118.341 157.886 119.917 157.563zM114.278 159.063c5.14 8.711 3.4 5.8 5.73 14.632 1.22 4.618 3.742 8.769 5.61 10.73 -3.01 1-6.1 1.75-9.22 2.229 -0.65-5.13-1.414-10.458-1.64-11.689 -1-5.454-2.881-11.482-4.501-14.82C111.539 160.016 113.009 159.254 114.278 159.063zM109.699 160.205c3.223 7.918 4.532 19.146 5.81 26.58 -2.942 0.418-6.063 0.57-8.979 0.57 -0.001-0.025-1.897-15.809-2.641-26.162C105.917 160.893 108.049 160.662 109.699 160.205zM103.389 161.213c0.05 11.677 0.956 14.712 2.41 26.152 -3.489 0.01-6.97-0.149-10.459-0.45 2.365-19.61 3.55-25.632 3.55-25.632C100.732 161.283 102.403 161.246 103.389 161.213zM98.269 161.283c-2.776 15.35-3.252 19.064-3.58 25.572 -3.189-0.268-6.325-0.668-9.3-1.23 0.281-8.057 1.408-18.063 4.9-25.33C92.939 160.565 95.609 161.273 98.269 161.283zM89.779 160.245c-4.003 7.147-5.299 17.074-5.13 25.23 -3.873-0.771-7.202-1.758-10.52-3.04 5.056-6.227 7.374-16.511 7.99-24.521C84.642 158.53 87.31 159.698 89.779 160.245zM81.549 157.766c-1.419 8.741-2.916 17.096-8.04 24.439 -3.04-1.17-6.02-2.5-8.92-3.97 2.807-1.871 5.653-4.711 7.56-7.97 1.716-2.93 5.511-11.429 6.31-14.241C79.439 156.404 80.549 157.505 81.549 157.766zM75.789 154.804c0.77 0.471 1.49 0.761 2.34 1.101 -0.65 1.82-1.44 3.351-2.35 5.111 -2.167 4.379-4.345 11.597-11.83 16.88 -1.39-0.71-2.77-1.46-4.12-2.25C71.408 169.404 69.452 157.678 75.789 154.804zM1.559 226.655c0.136-3.996 0.887-16.321 3.59-22.41 2.73-6.149 8-10.39 13.88-13.52 -0.402 9.421 4.184 10.589 4.5 21.85 0.09 3.41 0.56 6.76 1.13 10.12 -0.26-3.53-0.37-7.03-0.35-10.57 0.058-10.247-4.58-12.021-4.58-21.779 7.43-3.782 15.967-6.216 24.41-8.761 4.94-1.479 9.94-3.029 14.56-5.359 13.184 8.692 25.449 13.279 47.35 13.149 15.873 0 25.119-4.104 34.9-11.109 13.149 6.077 30.126 5.28 39.46 10.91 -1.655 4.925-2.791 7.494-3.1 10.18 -0.715 6.32 0.347 10.814-0.561 16.62 -0.53 3.37-3.12 5.85-3.82 9.16 2.036-6.202 5.709-3.93 5.261-18.551 -0.257-8.245 0.476-8.458 2.779-17.069 11.486 7.199 14.441 24.116 15.091 37.58C162.822 226.877 14.665 226.935 1.559 226.655z" fill="#3d0062" stroke-width="none" opacity="1" stroke="none"/>
        </g>
        <g id="svga-group-head" transform="matrix(1,0,0,1,0,0)">
          <g id="svga-group-ears-left-move" transform="matrix(1,0,0,1,0,0)" style="display: none;">
            <g id="svga-group-ears-left" transform="matrix(1,0,0,1,0,0)">
              <path id="SvgjsPath5398" d="M47.34 82.049c-1.378-2.352-9.403-6.527-11.855-6.357 -4.229 0.292-5.137 5.152-5.446 7.479 -0.609 4.591 0.645 9.778 1.485 12.908 0.687 2.557 2.874 7.41 4.214 9.664 1.197 2.016 4.145 5.663 5.733 7.358 1.398 1.495 4.73 4.215 7.248 3.551 2.769-0.728 6.015-3.857 6.239-5.193C56.165 104.212 50.926 88.167 47.34 82.049z" fill="#f3d4cf" stroke="#c5796d" stroke-width="1.5" opacity="1"/>
              <path id="SvgjsPath5399" d="M42.903 98.548c-0.142-0.572 0.007-1.535 0.151-2.465 0.131-0.848 0.255-1.648 0.18-2.214 -0.284-2.121-1.888-6.15-2.936-8.334 -1.206-2.511-3.157-5.674-5.602-6.492 -1.011-0.338-2.073-0.511-2.145-0.236 -0.611 1.9-0.563 7.178-0.212 11.086 0.987 10.992 10.375 18.911 11.872 20.578 0.276 0.308 0.566 0.49 0.637 0.416 0.072-0.074-0.1-0.379-0.375-0.688 -1.477-1.654-8.314-8.49-9.27-12.807 -1.012-4.581 3-12.111 3.776-13.548 0.397 0.675 0.732 1.322 0.991 1.862 0.204 0.424 0.429 0.92 0.66 1.456 -0.456 0.75-3.656 6.219-2.489 10.596 0.431 1.615 2.379 3.695 3.67 4.266 0.71 0.314 0.978 0.783 1.287 1.325 0.359 0.63 0.765 1.343 1.946 1.861 0.24 0.106 0.457 0.148 0.649 0.148 0.333 0 0.586-0.132 0.773-0.288 0.019 0.275-0.349 2.463-0.357 2.789 -0.012 0.421 0.045 0.77 0.146 0.778 0.101 0.008 0.207-0.327 0.221-0.749 0.016-0.518 0.379-2.992 0.289-3.297 -0.264-0.902-1.073-1.921-1.93-3C43.994 100.53 43.122 99.432 42.903 98.548zM34.428 94.672c-2.316-7.025 1.456-13.179 1.977-14.144 0.906 0.808 1.704 1.89 2.354 2.948C38.286 84.321 34.526 89.947 34.428 94.672zM45.187 104.856c-1.069-0.469-1.427-1.096-1.774-1.704 -0.313-0.549-0.637-1.118-1.458-1.481 -0.179-0.08-0.375-0.199-0.576-0.338 -2.646-6.164 0.289-8.857 1.025-9.411 0.226 0.754 0.394 1.445 0.468 2 0.067 0.509-0.058 1.317-0.179 2.1 -0.149 0.97-0.305 1.973-0.144 2.621 0.239 0.967 1.137 2.098 2.005 3.191 0.771 0.971 1.562 1.97 1.832 2.786C46.271 104.783 45.905 105.173 45.187 104.856z" fill="#c5796d" stroke-width="none" opacity="1" stroke="none"/>
            </g>
          </g>
          <g id="svga-group-ears-right-move" transform="matrix(1,0,0,1,0,0)" style="display: none;">
            <g id="svga-group-ears-right" transform="matrix(1,0,0,1,0,0)">
              <path id="SvgjsPath5400" d="M152.398 82.049c1.377-2.352 9.402-6.527 11.855-6.357 4.229 0.292 5.137 5.152 5.445 7.479 0.609 4.591-0.645 9.778-1.484 12.908 -0.688 2.557-2.875 7.41-4.215 9.664 -1.197 2.016-4.145 5.663-5.732 7.358 -1.398 1.495-4.73 4.215-7.248 3.551 -2.77-0.728-6.016-3.857-6.238-5.193C143.574 104.212 148.813 88.167 152.398 82.049z" fill="#f3d4cf" stroke="#c5796d" stroke-width="1.5" opacity="1"/>
              <path id="SvgjsPath5401" d="M154.902 101.59c-0.855 1.08-1.666 2.098-1.93 3 -0.09 0.305 0.273 2.779 0.289 3.297 0.014 0.422 0.119 0.757 0.221 0.749 0.102-0.009 0.158-0.357 0.146-0.778 -0.01-0.326-0.377-2.514-0.357-2.789 0.188 0.156 0.439 0.288 0.771 0.288 0.193 0 0.41-0.042 0.65-0.148 1.182-0.518 1.588-1.23 1.945-1.861 0.311-0.542 0.578-1.011 1.287-1.325 1.291-0.571 3.24-2.651 3.67-4.266 1.168-4.376-2.031-9.846-2.488-10.596 0.23-0.536 0.457-1.032 0.66-1.456 0.26-0.54 0.594-1.188 0.99-1.862 0.777 1.437 4.789 8.967 3.777 13.548 -0.955 4.317-7.793 11.153-9.27 12.807 -0.275 0.31-0.447 0.614-0.375 0.688s0.361-0.108 0.637-0.416c1.498-1.667 10.885-9.585 11.873-20.578 0.35-3.908 0.396-9.187-0.213-11.086 -0.072-0.274-1.135-0.102-2.145 0.236 -2.445 0.817-4.396 3.98-5.604 6.492 -1.047 2.185-2.65 6.213-2.936 8.334 -0.076 0.566 0.049 1.366 0.18 2.214 0.145 0.93 0.293 1.893 0.15 2.465C156.617 99.432 155.744 100.53 154.902 101.59zM160.979 83.476c0.65-1.058 1.449-2.14 2.355-2.948 0.52 0.964 4.291 7.119 1.977 14.144C165.211 89.947 161.453 84.321 160.979 83.476zM153.352 104.62c0.271-0.815 1.063-1.814 1.832-2.786 0.869-1.093 1.766-2.224 2.006-3.191 0.16-0.648 0.006-1.651-0.145-2.621 -0.121-0.783-0.246-1.591-0.178-2.1 0.074-0.555 0.242-1.245 0.467-2 0.736 0.553 3.672 3.247 1.025 9.411 -0.201 0.139-0.396 0.258-0.576 0.338 -0.82 0.363-1.145 0.932-1.457 1.481 -0.348 0.608-0.705 1.235-1.775 1.704C153.834 105.173 153.467 104.783 153.352 104.62z" fill="#c5796d" stroke-width="none" opacity="1" stroke="none"/>
            </g>
          </g>
          <g id="svga-group-faceshape-wrap" transform="matrix(1,0,0,1,0,0)">
            <g id="svga-group-faceshape-single">
              <path id="SvgjsPath5414" d="M158.918 76.762l-0.005 0c-0.012 0.053-8.517 40.707-16.719 53.285 -6.452 9.894-30.366 29.938-42.04 29.956 -11.671 0.02-35.637-19.958-42.119-29.833C49.794 117.618 41.15 77 41.138 76.946h-0.001c-1.298-4.911-1.994-10.066-2.002-15.382C39.082 28.09 66.289 0.919 99.907 0.867c33.621-0.052 60.913 27.033 60.963 60.507C160.879 66.69 160.201 71.846 158.918 76.762z" fill="#f3d4cf" stroke-width="none" opacity="1" stroke="none"/>
              <path id="SvgjsPath5415" d="M125.898 6.622c19.104 10.248 32.075 30.355 32.039 53.476 -0.009 5.316-0.704 10.471-2.003 15.382h-0.001c-0.012 0.053-8.656 40.672-16.898 53.224 -5.946 9.061-26.755 29.522-39.033 29.522 -12.279 0-33.086-20.462-39.033-29.522 -8.242-12.552-16.887-53.17-16.898-53.224H44.07c-1.298-4.911-1.994-10.066-2.002-15.382C42.031 36.977 55.003 16.87 74.105 6.622 53.411 16.324 39.096 37.28 39.134 61.564c0.008 5.316 0.704 10.471 2.002 15.382h0.001C41.15 77 49.794 117.618 58.036 130.17c4.416 6.728 18.123 20.495 28.7 25.782 -0.529-0.226-1.062-0.466-1.599-0.717 5.408 2.875 10.664 4.763 14.713 4.768 0.049 0 0.103-0.005 0.152-0.005s0.103 0.005 0.152 0.005c4.048-0.005 9.304-1.893 14.713-4.768 -0.538 0.252-1.071 0.491-1.601 0.717 10.577-5.286 24.285-19.055 28.701-25.782 8.241-12.552 16.887-53.17 16.897-53.224h0.002c1.298-4.911 1.994-10.066 2.002-15.382C160.908 37.28 146.595 16.324 125.898 6.622z" fill="#ebc3bd" stroke-width="none" opacity="1" stroke="none"/>
              <path id="SvgjsPath5416" d="M158.918 76.762l-0.005 0c-0.012 0.053-8.517 40.707-16.719 53.285 -6.452 9.894-30.366 29.938-42.04 29.956 -11.671 0.02-35.637-19.958-42.119-29.833C49.794 117.618 41.15 77 41.138 76.946h-0.001c-1.298-4.911-1.994-10.066-2.002-15.382C39.082 28.09 66.289 0.919 99.907 0.867c33.621-0.052 60.913 27.033 60.963 60.507C160.879 66.69 160.201 71.846 158.918 76.762z" fill="none" stroke="#c5796d" stroke-width="1.5" opacity="1"/>
            </g>
          </g>
          <g id="svga-group-mouth-single-move" transform="matrix(1,0,0,1,0,0)">
            <g id="svga-group-mouth-single" transform="matrix(1,0,0,1,0,0)">
              <path id="SvgjsPath5387" d="M99.867 142.685c-4.159 0-7.651-3.162-7.651-3.162 7.261 1.131 16.154-0.671 16.154-0.671S105.119 142.685 99.867 142.685z" fill="#e4b3ab" stroke-width="none" opacity="1" stroke="none"/>
              <path id="SvgjsPath5388" d="M99.869 138.507c-2.691 0.025-8.86-1.635-11.18-2.938 -1.374-0.769-3.749-3.433-5.4-4.788 -0.635-0.521-0.371-1.528 0.466-1.569 2.036-0.099 4.65 0.979 5.876 1.169 2.565 0.389 5.805 1.835 10.195 1.835 3.262 0 6.828-1.15 9.101-1.574 1.367-0.254 4.529-1.376 6.755-1.501 0.838-0.05 1.18 0.777 0.56 1.316 -1.739 1.526-4.526 4.328-6.028 5.112C107.783 136.837 102.294 138.485 99.869 138.507z" fill="#000000" stroke-width="none" opacity="0.5"/>
              <path id="SvgjsPath5389" d="M86.859 129.328c0 0 0.286 2.427 0.722 3.12 0.6 0.954 4.257 2.914 5.717 3.188 0.993 0.184 2.814 0.476 3.816 0.613 1.085 0.148 1.695 0.015 2.791-0.021 1.179-0.038 2.186 0.132 3.336-0.135 0.819-0.19 3.215-0.834 3.997-1.145 0.604-0.242 1.814-0.643 2.364-0.992 0.456-0.288 1.866-1.333 2.146-1.795 0.366-0.605 0.709-2.752 0.709-2.752L86.859 129.328z" fill="#ffffff" stroke-width="none" opacity="1"/>
              <path id="SvgjsPath5390" d="M92.17 129.748c0 0-0.522 5.283-0.568 5.375 -0.047 0.092-0.179-5.375-0.179-5.375H92.17zM94.364 130.335l0.464 5.601 0.298-5.601H94.364zM99.485 131.161l0.579 5.088 0.375-5.176L99.485 131.161zM103.978 130.093c0.973 0.088 1.298 5.446 1.298 5.446l0.134-5.446H103.978zM107.705 129.438c0 0 0.386 5.114 0.44 5.018 0.053-0.097 0.153-5.018 0.153-5.018H107.705zM88.876 129.436l0.283 4.181 0.283-4.181H88.876zM110.375 129.011l0.086 4.38 0.432-4.413L110.375 129.011z" fill="#000000" stroke-width="none" opacity="0.1"/>
              <path id="SvgjsPath5391" d="M116.764 129.126c-1.218-0.406-3.771-0.125-5.061-0.294 -1.83-0.239-5.542-0.409-7.392-0.356 -1.161 0.034-3.449 0.457-4.608 0.484 -1.191 0.027-3.562-0.461-4.751-0.471 -1.888-0.012-5.689 0.214-7.54 0.534 -1.279 0.222-3.89-0.113-4.914 0.475 -0.237 0.137-0.095 0.75 0 0.981 0.862 2.089 4.188 5.489 7.067 7.497 3.698 2.579 7.586 3.38 10.643 3.381 4.035 0.003 8.785-2.247 12.762-5.639 1.758-1.5 3.982-4.091 4.353-5.537C117.512 129.451 117.079 129.231 116.764 129.126zM99.816 136.352c-2.488 0.019-8.26-1.229-10.697-2.494 -1.461-0.759-3.7-2.577-5.226-3.708 -0.588-0.435-0.454-0.789 0.321-0.822 1.882-0.084 5.042 0.944 6.177 1.1 2.371 0.324 5.366 1.531 9.425 1.531 3.013 0 6.312-0.959 8.414-1.311 1.264-0.213 4.833-1.278 6.89-1.384 0.775-0.04 0.926 0.276 0.354 0.727 -1.61 1.271-4.326 3.216-6.055 4.066C107.224 135.139 102.057 136.328 99.816 136.352z" fill="#f771a9" stroke="#e85391" stroke-width="0.75" opacity="1"/>
              <path id="SvgjsPath5392" d="M86.869 134.124c2.588 0.523 8.417 3.611 13.315 3.444 5.105-0.175 12.685-4.745 13.685-4.244 0.373 1.199-9.853 6.985-13.685 7.077C96.747 140.482 85.786 135.485 86.869 134.124zM99.485 131.161c3.109-0.042 6.909-0.442 9.469-1.672 -2.918-1.013-6.938 0.115-9.251 0.168 -3 0.07-5.51-0.934-8.289 0.058C94.069 130.622 96.798 131.198 99.485 131.161z" fill="#ff8ebd" stroke-width="none" opacity="1" stroke="none"/>
              <path id="SvgjsPath5393" d="M97.732 139.024c-1.881-0.424-1.945-0.596-0.162-0.42 1.09 0.106 2.18 0.132 3.238 0.03 0.141-0.015 0.281-0.029 0.419-0.049 1.195-0.157 2.479-0.546 3.768-1.051 2.015-0.792 2.051-0.6 0.053 0.446 -1.467 0.767-2.831 1.324-3.798 1.44l-0.062 0.007C100.364 139.509 99.123 139.34 97.732 139.024z" fill="#ffa8cc" stroke-width="none" opacity="1" stroke="none"/>
              <path id="SvgjsPath5394" d="M79.599 130.722c0 0-0.561-1.256-0.482-1.724 0.11-0.657 1.521-1.958 1.521-1.958s-0.854 1.498-0.986 1.971C79.523 129.468 79.599 130.722 79.599 130.722zM120.163 130.881c0 0 0.609-1.364 0.523-1.873 -0.119-0.714-1.652-2.127-1.652-2.127s0.929 1.628 1.072 2.142C120.245 129.519 120.163 130.881 120.163 130.881z" fill="#c5796d" stroke-width="none" opacity="1" stroke="none"/>
            </g>
          </g>
          <g id="svga-group-eyes-left-move" transform="matrix(1,0,0,1,0,0)">
            <g id="svga-group-eyes-left" transform="matrix(1,0,0,1,0,0)">
              <g id="svga-group-eyesback-left">
                <path id="SvgjsPath5315" d="M79.063 92.229c-4.31 0.755-7.656 0.71-10.688-0.204 -3.127-0.943-7.188-4.825-8.596-8.495 3.715-0.277 11.349-0.597 14.89-0.154 4.688 0.586 9.474 2.406 12.305 5.236 -0.016 0.294-0.053 0.583-0.087 0.872C84.602 91.031 81.366 91.825 79.063 92.229z" fill="url(#SvgjsRadialGradient5316)" opacity="1"/>
              </g>
              <g id="svga-group-eyesiriswrapper-left" transform="matrix(1,0,0,1,-1,0.5)">
                <g id="svga-group-eyesiriscontrol-left" transform="matrix(1,0,0,1,0,0)">
                  <g id="svga-group-eyesiris-left" transform="matrix(1,0,0,1,0,0)">
                    <path id="SvgjsPath5373" d="M83.199 89.25c-1.231 4.522-5.896 7.187-10.429 5.944 -4.528-1.241-7.203-5.918-5.97-10.442 1.23-4.526 5.905-7.19 10.434-5.947C81.761 80.045 84.433 84.723 83.199 89.25z" fill="#7b5c33" stroke="#4d3009" stroke-width="0.5" opacity="1"/>
                    <path id="SvgjsPath5374" d="M82.994 87.526c-0.625 5.021-4.353 7.638-8.432 7.365 -3.765-0.253-7.131-3.031-7.443-7.828 1.302-0.374 3.031 0.234 4.549 0.002 -0.005 0.055-0.023 0.104-0.025 0.16 -0.12 1.842 1.357 3.446 3.299 3.577 1.946 0.13 3.62-1.263 3.74-3.104 0.013-0.24-0.002-0.476-0.038-0.702C79.997 87.2 81.648 86.999 82.994 87.526z" fill="#8a6d47" stroke-width="none" opacity="1" stroke="none"/>
                    <path id="SvgjsPath5375" d="M76.229 84.164c-1.869-0.535-3.777 0.533-4.26 2.396 -0.483 1.853 0.642 3.793 2.51 4.329 1.873 0.537 3.781-0.532 4.266-2.386C79.23 86.639 78.101 84.7 76.229 84.164z" fill="#000000" stroke-width="none" opacity="0.9"/>
                    <path id="SvgjsPath5376" d="M76.229 84.164c-1.869-0.535-3.777 0.533-4.26 2.396 -0.483 1.853 0.642 3.793 2.51 4.329 1.873 0.537 3.781-0.532 4.266-2.386C79.23 86.639 78.101 84.7 76.229 84.164z" fill="none" stroke="#4d3009" stroke-width="0.75" opacity="1"/>
                    <path id="SvgjsPath5377" d="M70.977 92.181c-0.177 0.619-1.142 0.356-0.965-0.266 0.171-0.6 0.633-0.967 0.926-1.495 0.313-0.564 1.177-0.06 0.863 0.505C71.56 91.36 71.114 91.696 70.977 92.181L70.977 92.181zM72.516 91.194c-0.266 0.31-0.614 1.458-0.766 1.834 -0.241 0.598 0.727 0.856 0.965 0.266 0.082-0.205 0.362-1.223 0.508-1.393C73.64 91.415 72.936 90.704 72.516 91.194L72.516 91.194zM74.598 94.151c0.522-0.602 0.47-1.292 0.459-2.041 -0.01-0.644-1.01-0.645-1 0 0.006 0.415 0.13 0.992-0.166 1.334C73.47 93.929 74.175 94.639 74.598 94.151L74.598 94.151zM75.619 91.985c0.008 0.621 0.084 1.226 0.268 1.82 0.19 0.614 1.155 0.352 0.965-0.266 -0.159-0.513-0.226-1.019-0.232-1.555C76.611 91.341 75.611 91.34 75.619 91.985L75.619 91.985z" fill="#ffffff" stroke-width="none" opacity="0.5"/>
                    <path id="SvgjsPath5378" d="M80.946 85.543c-0.985 0.59-2.466 0.059-3.305-1.188 -0.838-1.248-0.713-2.739 0.273-3.328 0.984-0.593 2.467-0.061 3.301 1.187C82.053 83.462 81.932 84.952 80.946 85.543z" fill="#ffffff" stroke-width="none" opacity="0.8"/>
                  </g>
                </g>
              </g>
              <g id="svga-group-eyesfront-left">
                <path id="SvgjsPath5340" d="M56 88c0 13.808 8.06 24.999 18 24.999S92 101.808 92 88c0-13.809-8.06-25.001-18-25.001S56 74.191 56 88zM59.78 83.53c3.715-0.277 11.349-0.597 14.89-0.154 4.952 0.619 10.04 2.6 12.788 5.71 -2.289 1.82-5.897 2.705-8.395 3.143 -4.31 0.755-7.656 0.71-10.688-0.204C65.249 91.083 61.188 87.2 59.78 83.53z" fill="#f3d4cf" stroke-width="none" opacity="1" stroke="none"/>
                <path id="SvgjsPath5341" d="M56.143 86.915c0.027 8.284 8.484 14.962 18.902 14.919 10.414-0.047 18.836-6.796 18.813-15.08 -0.027-8.285-8.486-14.963-18.902-14.92C64.539 71.881 56.119 78.63 56.143 86.915zM59.78 83.53c3.715-0.277 11.349-0.597 14.89-0.154 4.952 0.619 10.04 2.6 12.788 5.71 -2.289 1.82-5.897 2.705-8.395 3.143 -4.31 0.755-7.656 0.71-10.688-0.204C65.249 91.083 61.188 87.2 59.78 83.53z" fill="url(#SvgjsRadialGradient5342)" opacity="1"/>
                <path id="SvgjsPath5346" d="M59.78 83.53c3.715-0.277 11.349-0.597 14.89-0.154 4.952 0.619 10.04 2.6 12.788 5.71 -2.289 1.82-5.897 2.705-8.395 3.143 -4.31 0.755-7.656 0.71-10.688-0.204C65.249 91.083 61.188 87.2 59.78 83.53z" fill="url(#SvgjsRadialGradient5347)" opacity="1"/>
                <path id="SvgjsPath5350" d="M67.363 79.695c6.133-0.278 8.613 0.088 12.986 1.384 1.662 0.602 1.852 0.772 2.555 1.214C79.119 80.256 68.83 79.641 67.363 79.695zM59.396 86.752c2.854 5.494 4.797 4.894 7.531 6.058 0.025 0.009-1.51-0.579-2.664-1.196C61.273 89.895 60.908 89.163 59.396 86.752z" fill="#c5796d" stroke-width="none" opacity="1" stroke="none"/>
                <path id="SvgjsPath5351" d="M56 81.734c3.096 2.525 4.363 5.953 7.398 8.529 2.037 1.729 5.877 2.717 9.602 2.773 3.844 0.058 8.59-0.434 10.258-0.855 2.838-0.718 3.539-1.278 6.742-1.472 -1.986-3.039-3.836-4.399-6.268-5.841 -2.977-1.764-5.074-2.279-8.719-2.564C70.16 81.924 56 81.734 56 81.734zM60.705 83.826c3.467-0.258 10.59-0.557 13.895-0.144 4.621 0.577 9.369 2.426 11.934 5.328 -2.137 1.699-5.504 2.524-7.834 2.933 -4.021 0.705-7.145 0.663-9.973-0.19C65.809 90.874 62.02 87.251 60.705 83.826z" fill="#210d34" stroke-width="none" opacity="1" stroke="none"/>
              </g>
            </g>
          </g>
          <g id="svga-group-eyes-right-move" transform="matrix(1,0,0,1,0,0)">
            <g id="svga-group-eyes-right" transform="matrix(1,0,0,1,0,0)">
              <g id="svga-group-eyesback-right">
                <path id="SvgjsPath5323" d="M120.937 92.229c4.31 0.755 7.656 0.71 10.688-0.204 3.127-0.943 7.188-4.825 8.596-8.495 -3.715-0.277-11.349-0.597-14.89-0.154 -4.688 0.586-9.474 2.406-12.305 5.236 0.016 0.294 0.053 0.583 0.087 0.872C115.398 91.031 118.634 91.825 120.937 92.229z" fill="url(#SvgjsRadialGradient5324)" opacity="1"/>
              </g>
              <g id="svga-group-eyesiriswrapper-right" transform="matrix(1,0,0,1,1,0.5)">
                <g id="svga-group-eyesiriscontrol-right" transform="matrix(1,0,0,1,0,0)">
                  <g id="svga-group-eyesiris-right" transform="matrix(1,0,0,1,0,0)">
                    <path id="SvgjsPath5379" d="M133.199 89.25c-1.231 4.522-5.896 7.187-10.429 5.944 -4.528-1.241-7.203-5.918-5.97-10.442 1.23-4.526 5.905-7.19 10.434-5.947C131.761 80.045 134.433 84.723 133.199 89.25z" fill="#7b5c33" stroke="#4d3009" stroke-width="0.5" opacity="1"/>
                    <path id="SvgjsPath5380" d="M132.994 87.526c-0.625 5.021-4.353 7.638-8.432 7.365 -3.765-0.253-7.131-3.031-7.443-7.828 1.302-0.374 3.031 0.234 4.549 0.002 -0.005 0.055-0.023 0.104-0.025 0.16 -0.12 1.842 1.357 3.446 3.299 3.577 1.946 0.13 3.62-1.263 3.74-3.104 0.013-0.24-0.002-0.476-0.038-0.702C129.997 87.2 131.648 86.999 132.994 87.526z" fill="#8a6d47" stroke-width="none" opacity="1" stroke="none"/>
                    <path id="SvgjsPath5381" d="M126.229 84.164c-1.869-0.535-3.777 0.533-4.26 2.396 -0.483 1.853 0.642 3.793 2.51 4.329 1.873 0.537 3.781-0.532 4.266-2.386C129.23 86.639 128.101 84.7 126.229 84.164z" fill="#000000" stroke-width="none" opacity="0.9"/>
                    <path id="SvgjsPath5382" d="M126.229 84.164c-1.869-0.535-3.777 0.533-4.26 2.396 -0.483 1.853 0.642 3.793 2.51 4.329 1.873 0.537 3.781-0.532 4.266-2.386C129.23 86.639 128.101 84.7 126.229 84.164z" fill="none" stroke="#4d3009" stroke-width="0.75" opacity="1"/>
                    <path id="SvgjsPath5383" d="M120.977 92.181c-0.177 0.619-1.142 0.356-0.965-0.266 0.171-0.6 0.633-0.967 0.926-1.495 0.313-0.564 1.177-0.06 0.863 0.505C121.56 91.36 121.114 91.696 120.977 92.181L120.977 92.181zM122.516 91.194c-0.266 0.31-0.614 1.458-0.766 1.834 -0.241 0.598 0.727 0.856 0.965 0.266 0.082-0.205 0.362-1.223 0.508-1.393C123.64 91.415 122.936 90.704 122.516 91.194L122.516 91.194zM124.598 94.151c0.522-0.602 0.47-1.292 0.459-2.041 -0.01-0.644-1.01-0.645-1 0 0.006 0.415 0.13 0.992-0.166 1.334C123.47 93.929 124.175 94.639 124.598 94.151L124.598 94.151zM125.619 91.985c0.008 0.621 0.084 1.226 0.268 1.82 0.19 0.614 1.155 0.352 0.965-0.266 -0.159-0.513-0.226-1.019-0.232-1.555C126.611 91.341 125.611 91.34 125.619 91.985L125.619 91.985z" fill="#ffffff" stroke-width="none" opacity="0.5"/>
                    <path id="SvgjsPath5384" d="M130.946 85.543c-0.985 0.59-2.466 0.059-3.305-1.188 -0.839-1.248-0.714-2.739 0.272-3.328 0.984-0.593 2.467-0.061 3.301 1.187C132.054 83.462 131.932 84.952 130.946 85.543z" fill="#ffffff" stroke-width="none" opacity="0.8"/>
                  </g>
                </g>
              </g>
              <g id="svga-group-eyesfront-right">
                <path id="SvgjsPath5361" d="M126 62.999c-9.94 0-18 11.193-18 25.001 0 13.808 8.06 24.999 18 24.999S144 101.808 144 88C144 74.191 135.94 62.999 126 62.999zM131.624 92.025c-3.031 0.914-6.378 0.959-10.688 0.204 -2.497-0.438-6.105-1.323-8.395-3.143 2.748-3.11 7.836-5.091 12.788-5.71 3.541-0.443 11.175-0.123 14.89 0.154C138.812 87.2 134.751 91.083 131.624 92.025z" fill="#f3d4cf" stroke-width="none" opacity="1" stroke="none"/>
                <path id="SvgjsPath5362" d="M125.045 71.834c-10.416-0.043-18.875 6.635-18.902 14.92 -0.023 8.284 8.398 15.033 18.813 15.08 10.418 0.043 18.875-6.635 18.902-14.919C143.881 78.63 135.461 71.881 125.045 71.834zM131.624 92.025c-3.031 0.914-6.378 0.959-10.688 0.204 -2.497-0.438-6.105-1.323-8.395-3.143 2.748-3.11 7.836-5.091 12.788-5.71 3.541-0.443 11.175-0.123 14.89 0.154C138.812 87.2 134.751 91.083 131.624 92.025z" fill="url(#SvgjsRadialGradient5363)" opacity="1"/>
                <path id="SvgjsPath5367" d="M140.22 83.53c-3.715-0.277-11.349-0.597-14.89-0.154 -4.952 0.619-10.04 2.6-12.788 5.71 2.289 1.82 5.897 2.705 8.395 3.143 4.31 0.755 7.656 0.71 10.688-0.204C134.751 91.083 138.812 87.2 140.22 83.53z" fill="url(#SvgjsRadialGradient5368)" opacity="1"/>
                <path id="SvgjsPath5371" d="M117.096 82.293c0.703-0.442 0.893-0.613 2.555-1.214 4.373-1.295 6.854-1.662 12.986-1.384C131.17 79.641 120.881 80.256 117.096 82.293zM135.736 91.614c-1.154 0.617-2.689 1.205-2.664 1.196 2.734-1.164 4.678-0.564 7.531-6.058C139.092 89.163 138.727 89.895 135.736 91.614z" fill="#c5796d" stroke-width="none" opacity="1" stroke="none"/>
                <path id="SvgjsPath5372" d="M124.986 82.304c-3.645 0.285-5.742 0.8-8.719 2.564 -2.432 1.441-4.281 2.802-6.268 5.841 3.203 0.193 3.904 0.754 6.742 1.472 1.668 0.421 6.414 0.913 10.258 0.855 3.725-0.056 7.564-1.044 9.602-2.773 3.035-2.576 4.303-6.003 7.398-8.529C144 81.734 129.84 81.924 124.986 82.304zM131.273 91.753c-2.828 0.853-5.951 0.895-9.973 0.19 -2.33-0.409-5.697-1.234-7.834-2.933 2.564-2.902 7.313-4.751 11.934-5.328 3.305-0.413 10.428-0.114 13.895 0.144C137.98 87.251 134.191 90.874 131.273 91.753z" fill="#210d34" stroke-width="none" opacity="1" stroke="none"/>
              </g>
            </g>
          </g>
          <g id="svga-group-facehighlight-single">
            <path id="SvgjsPath5126" d="M140.204 113.007c0.035 22.275-17.995 40.365-40.273 40.396 -22.274 0.036-40.361-17.993-40.396-40.272C59.501 90.857 77.53 72.77 99.808 72.735 122.083 72.701 140.171 90.73 140.204 113.007z" fill="url(#SvgjsRadialGradient5127)" opacity="1"/>
            <path id="SvgjsPath5130" d="M135,55.999c0,19.329-15.671,35-35,35c-19.329,0-35-15.671-35-35s15.671-35,35-35C119.329,20.999,135,36.67,135,55.999z" fill="url(#SvgjsRadialGradient5131)" opacity="1"/>
          </g>
          <g id="svga-group-eyebrows-left-move" transform="matrix(1,0,0,1,0,0)">
            <g id="svga-group-eyebrows-left-rotate" transform="matrix(1,0,0,1,0,0)">
              <g id="svga-group-eyebrows-left" transform="matrix(1,0,0,1,0,0)">
                <path id="SvgjsPath5385" d="M57.004 67.78c11.555 9.335 37.156 4.096 34.985 0.54 -0.511-0.85-1.357-0.521-2.207-0.27C81.967 70.765 65.022 72.278 57.004 67.78z" fill="#b7513b" stroke-width="none" opacity="1" stroke="none"/>
              </g>
            </g>
          </g>
          <g id="svga-group-eyebrows-right-move" transform="matrix(1,0,0,1,0,0)">
            <g id="svga-group-eyebrows-right-rotate" transform="matrix(1,0,0,1,0,0)">
              <g id="svga-group-eyebrows-right" transform="matrix(1,0,0,1,0,0)">
                <path id="SvgjsPath5386" d="M142.996 67.78c-11.456 9.255-37.187 4.146-34.985 0.54 0.951-1.583 2.076 0.616 11.924 1.808C126.627 70.951 136.795 71.259 142.996 67.78z" fill="#b7513b" stroke-width="none" opacity="1" stroke="none"/>
              </g>
            </g>
          </g>
          <g id="svga-group-nose-single-move" transform="matrix(1,0,0,1,0,0)">
            <g id="svga-group-nose-single" transform="matrix(1,0,0,1,0,0)">
              <path id="SvgjsPath5395" d="M94.803 91.719c0 0 0.661 2.089 0.679 2.718 0.032 1.07-0.102 1.907-0.191 2.729 -0.579 5.369-3.579 13.137-3.418 16.845 0.07 1.597 1.125 3.926 1.125 3.926s-2.537-0.654-3.094-5.178c-0.23-1.866 1.717-5.479 2.397-7.23 0.646-1.664 1.906-7.059 2.348-8.798 0.186-0.729 0.52-1.607 0.515-2.362C95.162 93.697 94.803 91.719 94.803 91.719zM94.514 118.386c0 0 0.3 2.483 3.237 3.092 2.758 0.57 4.305-2.242 4.305-2.242s-2.292 1.442-4.052 0.925C97.075 119.889 94.514 118.386 94.514 118.386zM105.082 113.04c-0.02 0.595-0.198 2.316-0.198 2.316s0.904-1.384 0.962-1.93c0.104-0.98-1.063-3.808-1.063-3.808S105.109 112.176 105.082 113.04z" fill="#e4b3ab" stroke-width="none" opacity="1" stroke="none"/>
              <path id="SvgjsPath5396" d="M92.489 108.932c-1.224 3.882-2.089 7.991 1.481 9.82 0.467 0.239 0.967 0.416 1.475 0.517 0.276 0.054 0.479 0.288 0.722 0.441 0.557 0.357 1.475 0.408 2.113 0.518 2.454 0.424 4.93-0.568 5.538-2.942 -1.527 2.045-2.878 2.609-4.955 2.446 -2.493-0.196-4.573-2.28-5.227-4.726 -0.389-1.454-0.54-2.916-0.424-4.433 0.108-1.302 0.487-2.593 0.707-3.883 0.412-2.326 1.408-7.191 1.401-9.62 -0.398 1.693-1.119 5.687-1.392 6.661 -0.204 0.726-0.635 2.199-0.811 2.933C92.978 107.253 92.667 108.364 92.489 108.932zM92.207 115.405c-0.163-1.144 0.045-2.348 0.294-3.457 0.088 2.204 0.708 4.771 2.122 6.399C93.401 117.86 92.414 116.852 92.207 115.405 92.061 114.382 92.458 117.163 92.207 115.405z" fill="#c5796d" stroke-width="none" opacity="1" stroke="none"/>
              <path id="SvgjsPath5397" d="M95.57 113.331c0.158 0.712 0.032 1.354-0.281 1.438 -0.313 0.082-0.634-0.351-0.792-1.063 -0.158-0.711-0.09-1.432 0.222-1.513C95.032 112.11 95.413 112.62 95.57 113.331z" fill="#ffffff" stroke-width="none" opacity="1" stroke="none"/>
            </g>
          </g>
          <g id="svga-group-hair-front" transform="matrix(1,0,0,1,0,0)">
            <path id="SvgjsPath5294" d="M38.854 237.82l9.88-202.719 105.496 1.162 1.025 203.314C155.255 239.577 50.052 239.114 38.854 237.82zM137.106 235.279c-4.241-47.633 1.152-84.777 5.499-114.713 2.44-16.806 4.572-31.486 4.458-44.428 -2.542 1.415-21.941 1.903-21.941 1.903 -14.513 2.338-25.333 0.387-25.782 0.438 -1.982-12.335-2.297-14.256-2.726-17.048 -1.333 11.235-0.355 13.67-1.37 15.249 -2.873 0.713-22.804-0.167-23.806-0.237 -5.478 2.035-9.035-2.194-12.427-1.241 -1.982 1.505-5.386 1.669-6.386 1.42 -1.023 20.123 2.42 35.283 6.058 51.303 9 39.633 8.399 50.872 5.508 104.881C64.192 232.806 126.452 234.934 137.106 235.279z" fill="#b7513b" stroke-width="none" opacity="0.1" stroke="none"/>
            <path id="SvgjsPath5295" d="M177.393 209.541c-15.107-60.344 3.552-108.071-9.179-151.026 -6.063-20.427-18.396-46.964-42.724-57.386 -6.483-2.787-12.601-3.207-19.46-2.256 -3.871-1.177-8.064-1.773-12.462-1.773 -30.232 0-49.746 25.833-59.244 54.789 -5.943 18.135-7.341 33.902-5.755 64.884 3.633 70.935-3.103 88.369-14.274 117.075 17.224 0.024 36.536 4.694 63.515 4.779 22.28 0.08 102.989 0.006 109.574-0.733C180.977 223.385 179.949 219.769 177.393 209.541zM139.306 237.354c-44.235-1.525-58.379 0.504-77.335-0.458 3.085-57.769 3.929-68.17-5.236-108.528 -3.815-16.8-7.374-32.516-5.986-53.916 1.84-0.071 3.204 0.365 4.861 1.224v0.005c0.079 0.043 0.154 0.086 0.23 0.131 0.05-0.268 0.105-0.577 0.162-0.836l0.118-0.089 -0.098-0.02c0.638-3.158 1.735-6.719 3.175-10.297l0.191 0.054c-0.49 2.876-0.772 5.765-0.838 8.586l-0.03 0.053c3.296-0.917 7.163 1.845 10.161 1.845 0.87-0.06 1.588-0.369 2.394-0.662 1.102-15.937 2.326-22.387 4.625-27.361l0.188 0.063c-1.329 6.207-1.753 14.946-1.297 26.715l-0.012 0.016c2.685-0.26 5.862 0.912 8.171 0.815 0-3.915 0.676-9.192 0.94-12.385l0.199 0.002c0.403 6.263 1.163 10.374 1.782 13.256 5.281-1.185 5.041-0.413 7.762-0.57 0.189-0.009 0.377-0.028 0.556-0.064l0.03-0.046 -0.1 0.008c-0.677-8.054 2.333-25.156 3.102-29.187l0.198 0.019c-0.008 7.96 0.718 11.325 3.793 30.548 1.722-0.197 4.705 0.844 6.717 1.081 0-3.986-0.013-3.709 0.01-5.85l0.199 0c0.033 2.019 0.142 3.989 0.735 5.933 3.159 0.066 5.395-1.403 8.343-1.122 0.369-16.421-1.055-25.078-1.897-32.829l0.196-0.037c4.08 15.22 5.452 31.663 5.565 33.095 0.38-0.028 1.758-0.133 2.461-0.246 0.431-3.141 2.143-21.364 1.309-26.247l0.194-0.046c2.643 8.591 2.331 15.253 2.524 25.565 2.552-0.785 6.706 0.343 9.615 0.015 -0.4-7.699-0.557-14.668-2.451-21.243l0.189-0.063c2.292 5.971 4.105 13.197 4.986 20.951l0.045-0.025c6.444 0.5 5.332-0.919 9.239-2.14C150.379 109.934 131.943 159.713 139.306 237.354z" fill="#b7513b" stroke-width="none" opacity="1" stroke="none"/>
            <path id="SvgjsPath5296" d="M180.326 238.184c-13.273 0.212-38.624-0.278-41.021-0.829 -2.923-30.82-1.775-57.236 0.579-80.211 3.563-34.778 9.895-61.65 9.112-83.836 0.153-1.482 2.837-0.396 3.497-1.095 -4.5-29.25-14.214-47.686-29.494-59.91 64.384 45.135 14.583 132.535 23.191 167.176 1.473-18.377 13.012-69.387 15.809-79.376 -5 36-17 78 3 112 -2.631-14.907-2.954-30.583-2.994-45.681C162.776 191.536 172.246 214.616 180.326 238.184zM58.674 65.947c0.174-0.459 0.336-0.917 0.522-1.377l0.191 0.054c-0.49 2.876-0.772 5.765-0.838 8.586l-0.03 0.053c0.829-0.23 1.694-0.228 2.572-0.096 0.46-12.512 2.842-25.349 9.909-35.065C62.39 45.146 60.52 55.867 58.674 65.947zM101 31.102c-4.32 7.921-5.012 16.878-5.807 25.753 0.705-4.999 1.486-9.358 1.828-11.146l0.198 0.019c-0.008 7.96 0.718 11.325 3.793 30.548 0.581-0.066 1.31 0.014 2.092 0.15C99.585 61.645 97.306 46.8 101 31.102zM107.107 77.255c0.21 0.036 0.428 0.078 0.622 0.101 0-3.986-0.013-3.709 0.01-5.85l0.199 0c0.033 2.019 0.142 3.989 0.735 5.933 0.322 0.007 0.628-0.012 0.933-0.033C109.008 70.885 109 64.846 109 58.102 107.081 64.817 107.919 70.614 107.107 77.255zM116.672 76.305c0.116 0.006 0.227 0 0.345 0.012 0.369-16.421-1.055-25.078-1.897-32.829l0.196-0.037c4.08 15.22 5.452 31.663 5.565 33.095 0.274-0.02 1.071-0.081 1.757-0.156 -1.144-16.075-3.59-31.982-11.638-46.289C114.768 45.173 114.988 61.131 116.672 76.305zM135.979 75.646c0.347-0.006 0.685-0.021 1.005-0.058 -0.4-7.699-0.557-14.668-2.451-21.243l0.189-0.063c2.292 5.971 4.105 13.197 4.986 20.951l0.045-0.025c0.782 0.061 1.449 0.092 2.031 0.1 -1.098-13.198-6.537-25.602-12.785-37.206C132.851 50.616 135.767 63.131 135.979 75.646zM124.84 56.501c0.076-2.761 0.039-5.108-0.189-6.448l0.194-0.046c2.643 8.591 2.331 15.253 2.524 25.565 0.555-0.17 1.193-0.239 1.87-0.264 0.08-12.715-1.994-25.322-6.239-37.208C123.654 43.994 124.731 50.313 124.84 56.501zM86 50.102c-3.781 7.562-3.098 16.018-4.701 24.521 0.509 0.058 0.997 0.089 1.45 0.07 0-3.915 0.676-9.192 0.94-12.385l0.199 0.002c0.403 6.263 1.163 10.374 1.782 13.256 0.642-0.144 1.2-0.258 1.694-0.35C85.62 67.168 84.213 59.034 86 50.102zM79 40.102c-8.426 9.362-8.087 23.107-8.83 34.67 0.297-0.103 0.594-0.213 0.904-0.326 1.102-15.937 2.326-22.387 4.625-27.361l0.188 0.063c-1.329 6.207-1.753 14.946-1.297 26.715l-0.012 0.016c0.748-0.072 1.534-0.029 2.329 0.063C76.446 62.338 74.534 50.821 79 40.102zM81 17.102c-25.15 16.485-39 47-35 75 5 37 11 73 6 110 3-31-2-62-8-93 5 34 5 68-4 101 3.177-16.681 0.047-32.73-1.376-49.151 0.141 25.13-5.941 50.009-14.846 73.181 16.549 0.846 36.42 3.267 38.192 2.766 3.085-57.769 3.929-68.17-5.236-108.528 -3.815-16.8-7.374-32.516-5.986-53.916C50.748 74.453 52.907 45.195 81 17.102z" fill="#a83c25" stroke-width="none" opacity="1" stroke="none"/>
            <path id="SvgjsPath5297" d="M64.672 42.118C74.59 24.24 80.38 19.473 94.632 11.415c0.176-0.104-0.702 0.439-2.147 1.33C78.576 21.306 72.058 29.883 64.672 42.118zM135.742 37.113c9.163 18.181 9.775 30.657 9.025 24.705 -0.8-4.99-1.419-10.855-6.312-22.197 -5.369-11.776-14.072-23.532-25.283-30.441C119.437 13.431 126.959 20.108 135.742 37.113zM91.527 43.736c-1.861 13.125-1.499 23.37-1.487 22.57 0.06-9.996 2.285-23.7 4.771-33.506 2.673-9.599 5.599-14.82 6.494-16.746C97.408 23.369 93.199 32.769 91.527 43.736zM111.445 59.291c0.067 1.53 0.117 2.458 0.109 2.274 -0.562-6.037 1.766-16.643-5.494-38.71C109.065 33.412 110.842 42.398 111.445 59.291zM130.265 63.92c0.329 2.116 0.547 3.4 0.509 3.145 -1.188-7.196-0.94-20.108-7.805-34.964 -4.252-9.161-8.862-13.611-10.668-15.707C119.052 24.654 125.487 33.128 130.265 63.92zM79.303 60.814c0.534-8.417 1.123-9.623 1.675-12.166 3.557-14.121 5.869-18.655 10.179-25.844C78.031 42.895 79.303 60.814 79.303 60.814zM37.505 63.373c-0.024 0.471-0.016 2.812-0.008 2.419C38.081 45.747 61.782 11.076 77.827 5.21 62.315 10.191 39.336 38.968 37.505 63.373zM38.188 103.349c0.687 5.613 1.616 9.97 1.536 9.472 -3.8-17.919 1.102-58.568 12.54-73.07C43.945 49.745 35.375 75.813 38.188 103.349zM34.257 158.321c-0.697 3.996-0.614 3.458-0.165 1.388 3.824-18.365 0.212-50.656-1.332-66.366C32.761 92.337 35.675 142.412 34.257 158.321zM145.164 23.022c2.272 3.198 7.384 9.497 12.905 23.33 4.216 10.549-1.739-5.479-3.84-10.089 -7.777-18.021-18.42-26.645-36.157-33.313C133.49 9.586 138.051 14.323 145.164 23.022zM160.349 100.734c-1.174 11.388 1.192-7.638 1.439-10.115 2.257-19.967-1.41-33.458-8.753-46.237C159.271 56.404 163.33 68.177 160.349 100.734zM166.605 172.471c0.702 3.44 1.178 5.512 1.091 5.1 -4.749-24.438-0.502-87.206-0.472-89.487C166.943 94.275 160.133 142.839 166.605 172.471z" fill="#c66854" stroke-width="none" opacity="1" stroke="none"/>
            <path id="SvgjsPath5298" d="M177.489 209.517c-15.15-60.52 3.6-107.91-9.18-151.03 -7.061-23.79-20.16-47.76-42.78-57.45 -6.84-2.94-13.17-3.16-19.47-2.26 -7.271-2.21-16.46-2.55-25.811 0.07 -24.32 6.79-38.6 30.39-46.02 53.01 -5.61 17.12-7.43 32.3-5.76 64.92 3.57 69.692-2.795 87.556-14.32 117.17 17.259 0 36.599 4.694 63.66 4.779 22.157 0.084 104.198 0.003 109.72-0.75C181.142 223.517 180.077 219.868 177.489 209.517zM127.009 236.896c-28.229-0.85-46.33 0.71-64.63-0.079 -0.101-0.005-0.202-0.013-0.303-0.017 0.586-10.989 1.823-25.713 2.103-51.044 0.452-48.899-16.046-69.102-13.336-111.208 0.227-0.008 0.457-0.022 0.677-0.012 0.25 0.01 0.49 0.04 0.72 0.08 1.22 0.17 2.3 0.61 3.27 1.12 0 0.03 0 0.06-0.01 0.08 0.02-0.02 0.03-0.04 0.04-0.06 0.13 0.07 0.25 0.14 0.38 0.22 0-0.05 0.01-0.1 0.02-0.15 0.05-0.27 0.1-0.55 0.16-0.83 0-0.04 0.01-0.07 0.02-0.11 0.66-3.27 1.79-6.85 3.17-10.28 -0.54 3.17-0.78 6.05-0.84 8.6 0 0.06-0.01 0.12 0 0.18 0.24-0.07 0.48-0.13 0.72-0.16 3.13-0.44 6.75 2.02 9.58 1.98 0.67-0.05 1.31-0.28 1.95-0.51 0.16-0.07 0.31-0.12 0.47-0.18 0.31-4.51 0.82-9.25 1.05-11.59 0.53-5.39 1.31-10.91 3.57-15.8 -1.09 5.09-1.83 13.05-1.3 26.74 0 0.04 0.01 0.08 0.01 0.12 0.2-0.02 0.41-0.04 0.62-0.04 0.82-0.03 1.67 0.06 2.52 0.19 0.1 0.01 0.2 0.03 0.29 0.04 1.53 0.25 3.07 0.6 4.57 0.62 0.12 0 0.23 0 0.35-0.01 0-0.04 0-0.07 0-0.11 0.01-2.05 0.18-4.74 0.59-8.73 0.14-1.21 0.25-2.42 0.35-3.63 0.39 6.06 1.1 10.09 1.79 13.3 0 0.02 0.01 0.05 0.01 0.07 0.14-0.03 0.27-0.06 0.39-0.09 1.93-0.49 2.02-0.59 4.55-0.58 1.16 0 2.06 0.13 2.91 0.08 0.2-0.01 0.4-0.03 0.59-0.07 0-0.05-0.01-0.1-0.01-0.14 -0.17-2.02-0.24-3.89-0.18-5.14 0.14-3.1 1.56-15 3.28-24.02 -0.01 9.93 1.6 15.67 2.9 24.94 0.26 1.86 0.52 3.71 0.88 5.53 0.01 0.06 0.02 0.12 0.029 0.19 0.131-0.02 0.271-0.03 0.41-0.03 1.84-0.03 4 0.75 6.11 1.06 0.13 0.02 0.26 0.04 0.38 0.05 0-0.15 0-0.29 0-0.43 0-1.05 0-1.88 0-2.24 -0.01-1.27 0-2.36 0.01-3.29 0.04 2.49 0.19 3.89 0.63 5.58 0.04 0.14 0.08 0.29 0.131 0.45 0.159 0 0.319 0.01 0.47 0.01 0.149-0.01 0.29-0.01 0.43-0.02 1.79-0.11 3.5-0.72 5.26-1.02 0.62-0.11 1.2-0.15 1.75-0.12 0.2 0 0.4 0.02 0.601 0.04 0.01-0.08 0.01-0.17 0-0.25 0.029-1.56 0.029-3.4 0.01-5.6 -0.13-14.33-0.6-15.11-1.9-27.1 4.295 16.023 5.57 33.176 5.57 33.176s1.846-0.128 2.642-0.266c0.438-3.102 2.152-21.467 1.318-26.35 2.63 8.55 2.33 15.2 2.521 25.58 0.01 0.03 0.01 0.06 0.01 0.09 0.18-0.06 0.359-0.11 0.54-0.14 2.67-0.55 5.96 0.38 9 0.14 0.09-0.01 0.18-0.02 0.27-0.03 0-0.03-0.01-0.06-0.01-0.1 -0.4-8.32-0.64-14.98-2.45-21.26 2.181 5.68 4.08 13 4.95 20.66 0 0.02 0.01 0.04 0.01 0.07 0 0.05 0.011 0.1 0.011 0.15 0.01 0.03 0.01 0.06 0.02 0.1 0.08 0.01 0.16 0.01 0.25 0.02 1.23 0.11 2.47 0.19 3.65 0.05 1.994-0.247 3.513-1.582 5.379-2.165 0.667 15.533-3.643 42.797-5.319 54.003 -0.839 5.757-1.671 11.249-2.304 16.2 -4.776 36.774-4.247 71.054-2.08 93.846C135.446 237.146 131.398 237.029 127.009 236.896zM161.339 237.787c-1.8-7.09-3.66-14.75-4.26-17.54 -4.78-22.08-6.68-57.7-2.35-79.69 -4.511 19.601-5.551 53.73 1.359 80.94 0.95 3.74 2.66 9.79 4.641 16.28 -5.631-0.109-12.501-0.275-20.942-0.51 -0.994-13.384-1.845-33.824-0.302-56.421 2.255-36.467 10.913-86.177 9.76-107.737 0.274-0.075 0.549-0.15 0.834-0.203 0.24-0.05 0.48-0.09 0.72-0.13 0.96-0.15 1.94-0.25 2.9-0.38 0.12-0.02 0.25-0.04 0.37-0.06 -0.021-0.09-0.03-0.18-0.03-0.28 -0.74-6.93-2.86-22.16-9.47-35.44 -1.13-2.28-2.32-4.61-3.88-6.63 -3.04-3.91-13.34-16.09-17.87-17.71 5.41 2.95 13.46 13.25 17.09 18.32 3.9 5.53 11.52 24.85 13.56 40.08 0.061 0.47 0.131 0.95 0.19 1.42 -0.97 0.08-1.96 0.1-2.93 0.23 -0.24 0.03-0.471 0.06-0.7 0.11 -0.42 0.08-0.83 0.18-1.23 0.32 -1.93 0.68-3.449 2.17-5.54 2.4 -1.109 0.13-2.26 0.1-3.399 0.05 0-0.09-0.01-0.18-0.021-0.27 0.011-0.01 0.03-0.01 0.04-0.02 -0.01 0-0.029 0-0.04 0.01 -0.279-4.54-0.79-8.8-1.95-13.38 -0.579-2.27-2.67-7.84-5.1-12.25 -0.4-0.72-0.8-1.4-1.21-2.04 0.3 0.67 0.59 1.35 0.85 2.05 2.421 6.29 3.271 14.06 4.381 26.28 -2.79 0.02-6.21-0.83-8.98-0.13 0.23-8.92 0.4-16.72-3.11-26.27 -0.09-0.27-0.189-0.53-0.29-0.8 0 0.22 0 0.43 0 0.65 0.018 10.723-0.445 18.599-1.341 27.3 -0.002 0-1.868 0.208-1.868 0.208 -0.281-6.221-0.846-14.428-1.7-19.028 -1.32-7.09-2.931-12.55-4.62-17.04 -0.29-0.8-0.58-1.55-0.88-2.28 0.02 0.47 0.05 0.94 0.08 1.41 0.02 0.3 0.039 0.59 0.06 0.89 1.37 19.23 2.05 29.71 2.33 35.64 -0.43-0.02-0.91-0.01-1.45 0.05 -1.93 0.2-3.81 0.71-5.75 0.89 -0.1 0.01-0.2 0.02-0.31 0.01 -0.641-3.39-0.811-6.35-0.92-9.67 -0.011-0.01-0.011-0.03 0-0.04 -0.011-0.19-0.021-0.37-0.021-0.56 -0.08 0.39-0.15 0.79-0.21 1.18 -0.36 2.21-0.51 4.46-0.47 6.73 0.01 0.39 0.04 1.22 0.08 2.26 -1.971-0.27-4.221-1-6.13-0.84 -0.41-2.81-0.541-5.15-0.601-5.79 -0.5-5.21-2.49-17.76-2.67-28.99 -0.01-0.83-0.01-1.65 0-2.46 -0.03 0.08-0.06 0.17-0.09 0.26 -0.24 0.73-0.49 1.52-0.73 2.38 -2.43 8.47-4.82 22.83-3.8 33.37 -1.58 0.02-2.19-0.74-7.46 0.6 -0.66-4.44-1.37-9.72-1.83-16.91 -0.05-0.68-0.09-1.39-0.12-2.11 -0.13 0.69-0.27 1.39-0.4 2.12 -0.85 4.72-1.57 10.17-1.12 16.04 -1.97-0.09-3.37-0.38-4.54-0.6 -0.09-0.02-0.19-0.04-0.28-0.06 -0.91-0.17-1.7-0.29-2.55-0.22 0.04-9.19 0.5-23.44 1.29-27.48 0.05-0.24 0.1-0.48 0.15-0.72 0.04-0.19 0.08-0.38 0.13-0.57 -0.24 0.37-0.46 0.73-0.67 1.11 0 0 0 0 0 0.01 -2.87 5.07-4 11.09-4.68 16.86 -0.26 2.15-0.57 6.99-0.64 11.66 -0.66 0.18-1.32 0.34-1.98 0.36 -2.37 0.18-5.19-2.63-9.53-1.96 0.26-2.61 0.69-5.89 1.39-10.11 0.13-0.77 0.27-1.54 0.43-2.3 0.12-0.56 0.24-1.12 0.37-1.68 1.53-6.51 4.05-12.69 7.29-18.56 -4.84 7.94-7.48 15.26-8.86 21.6 -2.1 4.37-3.69 9.15-4.28 13.58 -0.96-0.58-2.05-1.07-3.28-1.24 -0.23-0.05-0.46-0.07-0.7-0.07 -0.67-0.05-1.38 0.01-2.14 0.2 1.06-5.01 2.81-10.72 4.72-16.16 0.05-0.14 0.1-0.27 0.14-0.41 2.31-6.51 4.81-12.58 6.62-16.49 4.05-8.76 9.38-13.92 17.64-22.9 -7.84 7.83-14.29 13.62-18.31 21.5 -2.34 4.59-4.76 9.25-6.34 14.17 -1.32 4.14-3.99 12.8-5.18 20.49 -0.02 0.08-0.03 0.16-0.04 0.23 0.24-0.08 0.47-0.13 0.7-0.18 0.484-0.101 0.939-0.145 1.384-0.166 -1.706 21.073 1.026 39.395 7.971 68.821 0 0 1.324 6.811 2.002 12.007 2.208 19.151 1.688 29.073 1.495 63.551 0.009 5.47-0.461 11.988-0.714 17.839 -5.923-0.293-11.821-0.83-17.718-1.401 0.91-2.79 1.93-5.59 2.73-8.08 4.77-14.79 7.95-48.95 1.23-86.431 4.23 28.811 3.22 58.641-0.75 81.271 -0.67 3.82-2.34 8.6-3.64 13.2 -6.5-0.63-12.99-1.271-19.51-1.61 -3.19-0.17-6.16-0.24-9.08-0.29 16.37-39.41 18.46-57.8 16.27-124.56 -0.68-20.86-1.4-40.54 8.37-65.61 16.17-41.49 46.03-49.89 65.84-44.35 0.189 0.04 0.38 0.1 0.57 0.15 0.27-0.03 0.54-0.07 0.81-0.1 9.23-1.1 16.92 0.36 26.6 7.13 23.62 16.52 35.21 48.19 36.87 76.97 1.65 28.58-4.13 64.52 0.98 100.85 1.78 12.64 5.04 24.949 8.85 37.12 0.44 1.51 3.83 9.34 6.96 16.529C183.339 237.917 177.659 238.097 161.339 237.787z" fill="#891b03" stroke-width="none" opacity="1" stroke="none"/>
          </g>
          <g id="svga-group-glasses-single-move" transform="matrix(1,0,0,1,0,0)">
            <g id="svga-group-glasses-single" transform="matrix(1,0,0,1,0,0)">
              <path id="SvgjsPath5258" d="M100,18.13L100,18.13L100,18.13L100,18.13z" fill="#26120b" stroke-width="none" opacity="1"/>
            </g>
          </g>
        </g>
      </g>
    </g>
    <rect id="SvgjsRect5111" width="200" height="15" x="0" y="185" fill="#ecf0f1" opacity="0.5" style="display: none;"/>
    <text id="SvgjsText5112" font-family="Roboto, Helvetica, Arial, sans-serif" font-size="10px" text-anchor="start" font-weight="400" anchor="start" fill="#333333" x="38.734375" y="182.4296875" style="display: none;">
      <tspan id="SvgjsTspan5113" dy="13" x="38.734375">Created on svgAvatars.com</tspan>
    </text>
  </g>
</svg>
