<?xml version="1.0"?>
<svg xmlns="http://www.w3.org/2000/svg" version="1.1" width="500px" height="500px" viewBox="0 0 200 200" style="overflow:hidden!important;">
  <defs id="SvgjsDefs13390">
    <radialGradient id="SvgjsRadialGradient13456" cx="100" cy="114" r="41" gradientUnits="userSpaceOnUse" class="svga-on-canvas-facehighlight-gradient-single-0">
      <stop id="SvgjsStop13457" stop-opacity="0.5" stop-color="#ffc9b5" offset="0"/>
      <stop id="SvgjsStop13458" stop-opacity="0" stop-color="#f5af95" offset="0.9"/>
    </radialGradient>
    <radialGradient id="SvgjsRadialGradient13460" cx="100" cy="54" r="37" gradientUnits="userSpaceOnUse" class="svga-on-canvas-facehighlight-gradient-single-1">
      <stop id="SvgjsStop13461" stop-opacity="0.5" stop-color="#ffc9b5" offset="0"/>
      <stop id="SvgjsStop13462" stop-opacity="0" stop-color="#f5af95" offset="0.9"/>
    </radialGradient>
    <radialGradient id="SvgjsRadialGradient13545" cx="-568.659" cy="-521.042" r="59.751" gradientTransform="matrix(0.096 -0.0248 0.0245 0.0961 141.2814 119.9893)" gradientUnits="userSpaceOnUse" class="svga-on-canvas-eyesiris-gradient-left-1">
      <stop id="SvgjsStop13546" stop-opacity="1" stop-color="#ffffff" offset="0"/>
      <stop id="SvgjsStop13547" stop-opacity="0" stop-color="#ffffff" offset="1"/>
    </radialGradient>
    <radialGradient id="SvgjsRadialGradient13549" cx="-582.838" cy="-519.099" r="59.745" gradientTransform="matrix(0.0991 8.856319e-004 -0.0011 0.0991 131.1134 135.9855)" gradientUnits="userSpaceOnUse" class="svga-on-canvas-eyesiris-gradient-left-2">
      <stop id="SvgjsStop13550" stop-opacity="1" stop-color="#ffffff" offset="0"/>
      <stop id="SvgjsStop13551" stop-opacity="0" stop-color="#ffffff" offset="1"/>
    </radialGradient>
    <linearGradient id="SvgjsLinearGradient13555" x1="122.67" y1="88.268" x2="123.606" y2="87.152" gradientTransform="matrix(1 0 0 1 -52 0)" gradientUnits="userSpaceOnUse" class="svga-on-canvas-eyesiris-gradient-left-5">
      <stop id="SvgjsStop13556" stop-opacity="1" stop-color="#ffffff" offset="0"/>
      <stop id="SvgjsStop13557" stop-opacity="0" stop-color="#ffffff" offset="1"/>
    </linearGradient>
    <linearGradient id="SvgjsLinearGradient13563" x1="129.636" y1="79.822" x2="127.91" y2="81.879" gradientTransform="matrix(1 0 0 1 -52 0)" gradientUnits="userSpaceOnUse" class="svga-on-canvas-eyesiris-gradient-left-7">
      <stop id="SvgjsStop13564" stop-opacity="1" stop-color="#ffffff" offset="0"/>
      <stop id="SvgjsStop13565" stop-opacity="0" stop-color="#ffffff" offset="1"/>
    </linearGradient>
    <radialGradient id="SvgjsRadialGradient13568" cx="-568.654" cy="-521.042" r="59.752" gradientTransform="matrix(0.096 -0.0248 0.0245 0.0961 193.2804 119.9894)" gradientUnits="userSpaceOnUse" class="svga-on-canvas-eyesiris-gradient-right-1">
      <stop id="SvgjsStop13569" stop-opacity="1" stop-color="#ffffff" offset="0"/>
      <stop id="SvgjsStop13570" stop-opacity="0" stop-color="#ffffff" offset="1"/>
    </radialGradient>
    <radialGradient id="SvgjsRadialGradient13572" cx="-582.833" cy="-519.102" r="59.747" gradientTransform="matrix(0.0991 8.856319e-004 -0.0011 0.0991 183.1126 135.9856)" gradientUnits="userSpaceOnUse" class="svga-on-canvas-eyesiris-gradient-right-2">
      <stop id="SvgjsStop13573" stop-opacity="1" stop-color="#ffffff" offset="0"/>
      <stop id="SvgjsStop13574" stop-opacity="0" stop-color="#ffffff" offset="1"/>
    </radialGradient>
    <linearGradient id="SvgjsLinearGradient13578" x1="122.67" y1="88.268" x2="123.606" y2="87.152" gradientUnits="userSpaceOnUse" class="svga-on-canvas-eyesiris-gradient-right-5">
      <stop id="SvgjsStop13579" stop-opacity="1" stop-color="#ffffff" offset="0"/>
      <stop id="SvgjsStop13580" stop-opacity="0" stop-color="#ffffff" offset="1"/>
    </linearGradient>
    <linearGradient id="SvgjsLinearGradient13586" x1="129.636" y1="79.822" x2="127.91" y2="81.879" gradientUnits="userSpaceOnUse" class="svga-on-canvas-eyesiris-gradient-right-7">
      <stop id="SvgjsStop13587" stop-opacity="1" stop-color="#ffffff" offset="0"/>
      <stop id="SvgjsStop13588" stop-opacity="0" stop-color="#ffffff" offset="1"/>
    </linearGradient>
    <radialGradient id="SvgjsRadialGradient13646" cx="125.903" cy="85.096" r="13.25" gradientTransform="matrix(-1.0996 0.0423 0.0635 0.9207 206.5488 0.5932)" gradientUnits="userSpaceOnUse" class="svga-on-canvas-eyesback-gradient-left-0">
      <stop id="SvgjsStop13647" stop-opacity="1" stop-color="#ffffff" offset="0"/>
      <stop id="SvgjsStop13648" stop-opacity="1" stop-color="#fdfefe" offset="0.544"/>
      <stop id="SvgjsStop13649" stop-opacity="1" stop-color="#f6f8f9" offset="0.74"/>
      <stop id="SvgjsStop13650" stop-opacity="1" stop-color="#eaeff2" offset="0.879"/>
      <stop id="SvgjsStop13651" stop-opacity="1" stop-color="#d9e3e8" offset="0.992"/>
      <stop id="SvgjsStop13652" stop-opacity="1" stop-color="#d8e2e7" offset="1"/>
    </radialGradient>
    <radialGradient id="SvgjsRadialGradient13654" cx="125.541" cy="85.113" r="13.249" gradientTransform="matrix(1.0996 0.0423 -0.0635 0.9207 -6.5488 0.5932)" gradientUnits="userSpaceOnUse" class="svga-on-canvas-eyesback-gradient-right-0">
      <stop id="SvgjsStop13655" stop-opacity="1" stop-color="#ffffff" offset="0"/>
      <stop id="SvgjsStop13656" stop-opacity="1" stop-color="#fdfefe" offset="0.544"/>
      <stop id="SvgjsStop13657" stop-opacity="1" stop-color="#f6f8f9" offset="0.74"/>
      <stop id="SvgjsStop13658" stop-opacity="1" stop-color="#eaeff2" offset="0.879"/>
      <stop id="SvgjsStop13659" stop-opacity="1" stop-color="#d9e3e8" offset="0.992"/>
      <stop id="SvgjsStop13660" stop-opacity="1" stop-color="#d8e2e7" offset="1"/>
    </radialGradient>
    <radialGradient id="SvgjsRadialGradient13662" cx="125.903" cy="85.096" r="13.25" gradientTransform="matrix(-1.0996 0.0423 0.0635 0.9207 206.5488 0.5932)" gradientUnits="userSpaceOnUse" class="svga-on-canvas-eyesfront-gradient-left-0">
      <stop id="SvgjsStop13663" stop-opacity="1" stop-color="#ffffff" offset="0"/>
      <stop id="SvgjsStop13664" stop-opacity="1" stop-color="#fdfefe" offset="0.544"/>
      <stop id="SvgjsStop13665" stop-opacity="1" stop-color="#f6f8f9" offset="0.74"/>
      <stop id="SvgjsStop13666" stop-opacity="1" stop-color="#eaeff2" offset="0.879"/>
      <stop id="SvgjsStop13667" stop-opacity="1" stop-color="#d9e3e8" offset="0.992"/>
      <stop id="SvgjsStop13668" stop-opacity="1" stop-color="#d8e2e7" offset="1"/>
    </radialGradient>
    <radialGradient id="SvgjsRadialGradient13672" cx="123.371" cy="81.442" fx="136.805" fy="80.36" r="17.038" gradientTransform="matrix(0.9884 0.1367 0.1336 -0.7354 -56.0677 125.3)" gradientUnits="userSpaceOnUse" class="svga-on-canvas-eyesfront-gradient-left-3">
      <stop id="SvgjsStop13673" stop-opacity="1" stop-color="#e69375" offset="0"/>
      <stop id="SvgjsStop13674" stop-opacity="0.3" stop-color="#e69375" offset="0.7"/>
      <stop id="SvgjsStop13675" stop-opacity="0" stop-color="#f5af95" offset="1"/>
    </radialGradient>
    <radialGradient id="SvgjsRadialGradient13677" cx="78.965" cy="81.143" r="26.237" gradientTransform="matrix(0.7183 -0.06 0.0803 0.6143 8.7915 49.2595)" gradientUnits="userSpaceOnUse" class="svga-on-canvas-eyesfront-gradient-left-4">
      <stop id="SvgjsStop13678" stop-opacity="0" stop-color="#000000" offset="0.95"/>
      <stop id="SvgjsStop13679" stop-opacity="0.2" stop-color="#000000" offset="1"/>
    </radialGradient>
    <radialGradient id="SvgjsRadialGradient13683" cx="125.541" cy="85.113" r="13.249" gradientTransform="matrix(1.0996 0.0423 -0.0635 0.9207 -6.5488 0.5932)" gradientUnits="userSpaceOnUse" class="svga-on-canvas-eyesfront-gradient-right-0">
      <stop id="SvgjsStop13684" stop-opacity="1" stop-color="#ffffff" offset="0"/>
      <stop id="SvgjsStop13685" stop-opacity="1" stop-color="#fdfefe" offset="0.544"/>
      <stop id="SvgjsStop13686" stop-opacity="1" stop-color="#f6f8f9" offset="0.74"/>
      <stop id="SvgjsStop13687" stop-opacity="1" stop-color="#eaeff2" offset="0.879"/>
      <stop id="SvgjsStop13688" stop-opacity="1" stop-color="#d9e3e8" offset="0.992"/>
      <stop id="SvgjsStop13689" stop-opacity="1" stop-color="#d8e2e7" offset="1"/>
    </radialGradient>
    <radialGradient id="SvgjsRadialGradient13693" cx="122.972" cy="81.425" fx="136.406" fy="80.344" r="17.037" gradientTransform="matrix(-0.9884 0.1367 -0.1336 -0.7354 255.271 125.3424)" gradientUnits="userSpaceOnUse" class="svga-on-canvas-eyesfront-gradient-right-3">
      <stop id="SvgjsStop13694" stop-opacity="1" stop-color="#e69375" offset="0"/>
      <stop id="SvgjsStop13695" stop-opacity="0.3" stop-color="#e69375" offset="0.7"/>
      <stop id="SvgjsStop13696" stop-opacity="0" stop-color="#f5af95" offset="1"/>
    </radialGradient>
    <radialGradient id="SvgjsRadialGradient13698" cx="79.515" cy="81.186" r="26.237" gradientTransform="matrix(-0.7183 -0.06 -0.0803 0.6143 191.2076 49.2665)" gradientUnits="userSpaceOnUse" class="svga-on-canvas-eyesfront-gradient-right-4">
      <stop id="SvgjsStop13699" stop-opacity="0" stop-color="#000000" offset="0.95"/>
      <stop id="SvgjsStop13700" stop-opacity="0.2" stop-color="#000000" offset="1"/>
    </radialGradient>
    <linearGradient id="SvgjsLinearGradient13710" x1="132" y1="78" x2="126" y2="84" gradientTransform="matrix(1 0 0 1 -50 0)" gradientUnits="userSpaceOnUse" class="svga-on-canvas-eyesiris-gradient-left-6">
      <stop id="SvgjsStop13711" stop-opacity="1" stop-color="#ffffff" offset="0"/>
      <stop id="SvgjsStop13712" stop-opacity="0" stop-color="#ffffff" offset="1"/>
    </linearGradient>
    <linearGradient id="SvgjsLinearGradient13720" x1="132" y1="78" x2="126" y2="84" gradientUnits="userSpaceOnUse" class="svga-on-canvas-eyesiris-gradient-right-6">
      <stop id="SvgjsStop13721" stop-opacity="1" stop-color="#ffffff" offset="0"/>
      <stop id="SvgjsStop13722" stop-opacity="0" stop-color="#ffffff" offset="1"/>
    </linearGradient>
    <linearGradient id="SvgjsLinearGradient13726" x1="100" y1="141" x2="100" y2="137" gradientUnits="userSpaceOnUse" class="svga-on-canvas-mouth-gradient-single-0">
      <stop id="SvgjsStop13727" stop-opacity="1" stop-color="#eda184" offset="0.1"/>
      <stop id="SvgjsStop13728" stop-opacity="1" stop-color="#e69375" offset="1"/>
    </linearGradient>
    <linearGradient id="SvgjsLinearGradient13761" x1="100" y1="171" x2="100" y2="130" gradientUnits="userSpaceOnUse" class="svga-on-canvas-chinshadow-gradient-single-0">
      <stop id="SvgjsStop13762" stop-opacity="0.8" stop-color="#e69375" offset="0"/>
      <stop id="SvgjsStop13763" stop-opacity="1" stop-color="#c7633d" offset="0.7"/>
    </linearGradient>
  </defs>
  <g id="svga-group-wrapper">
    <g id="svga-group-backs-single">
      <path id="SvgjsPath13610" d="M225 225H-25V-25h250V225z" fill="#5e8c6a" stroke-width="none" opacity="1" stroke="none"/>
      <path id="SvgjsPath13611" d="M103-37.266L99.131 71.999 96.536-37.598 103-37.266zM73.203-36.265L91.025 71.904 79.65-36.835 73.203-36.265zM66.869-16.598l24.577 89.921L68.869-17.931 66.869-16.598zM26.203-29.931L87.817 74.773 32.243-32.257 26.203-29.931zM23.545-16.454l60.278 91.568L25.536-20.265 23.545-16.454zM-11.865-28.757l57.2 61.532L-6.7-32.658 -11.865-28.757zM-15.464-0.265l94.073 82.174 -89.74-88.174L-15.464-0.265zM-30.131 2.069l85.667 64.667 -85.11-67.506L-30.131 2.069zM-25.19 42.794l99.642 45.712 -96.509-51.375L-25.19 42.794zM-44.131 43.402L56.536 85.069 -44.797 39.735 -44.131 43.402zM-54.775 75.518L53.607 91.994l-109.599-19.45L-54.775 75.518zM-44.102 97.566l109.62 1.232 -109.063-7.68L-44.102 97.566zM-58.131 52.069l89 27.333 -89.667-31L-58.131 52.069zM79.65 236.833l11.375-108.739L73.203 236.263 79.65 236.833zM68.869 217.929l22.577-91.254 -24.577 89.921L68.869 217.929zM30.826 240.293l47.61-91.392 -53.65 89.065L30.826 240.293zM25.536 220.263l58.287-95.379 -60.278 91.568L25.536 220.263zM-11.212 239.563l67.27-86.188 -72.435 82.287L-11.212 239.563zM-11.131 206.263l89.74-88.174 -94.073 82.174L-11.131 206.263zM-29.574 200.769l85.11-67.506 -85.667 64.666L-29.574 200.769zM-22.058 162.867l96.509-51.376 -99.642 45.713L-22.058 162.867zM-44.797 160.263l101.333-45.334 -100.667 41.667L-44.797 160.263zM-55.992 127.454l109.599-19.449L-54.775 124.48 -55.992 127.454zM-58.797 151.597l89.667-31.001 -89 27.333L-58.797 151.597zM120.438-43.631L106.913 64.863l14.599-89.479L120.438-43.631zM141.813-31.87L113.32 73.685l34.767-103.968L141.813-31.87zM149.456-11.494L112.68 75.019 151.219-9.86 149.456-11.494zM187.892-19.824l-71.859 96.851 77.454-93.596L187.892-19.824zM192.61-6.919l-72.688 84.917 74.049-80.838L192.61-6.919zM226.479-19.459l-61.838 61.764 66.318-57.093L226.479-19.459zM226.59 12.723L123.991 85.534l105.924-66.199L226.59 12.723zM243.926 21.075l-94.745 53.14 94.846-50.248L243.926 21.075zM230.489 57.303L127.048 92.708l105.635-29.315L230.489 57.303zM252.527 63.484L145.283 92.157l106.004-25.158L252.527 63.484zM255.805 96.376l-109.623-0.937 112.19 2.214L255.805 96.376zM239.29 109.779l-108.899-9.73 108.426 16.185L239.29 109.779zM241.298 126.083l-67.52-9.087 66.28 12.603L241.298 126.083zM104.827 238.789l-0.426-109.627 -6.031 109.166L104.827 238.789zM114.202 220.376l-9.991-92.682 7.806 93.681L114.202 220.376zM162.61 237.612l-54.587-110.773 48.254 112.112L162.61 237.612zM167.971 224.657l-55.949-97.521L165.4 228.103 167.971 224.657zM198.084 217.32l-79.836-96.065 74.605 101.301L198.084 217.32zM212.936 217.344l-74.315-77.444 73.314 80.159L212.936 217.344zM214.521 176.351l-91.122-60.95 87.131 66.045L214.521 176.351zM233.319 178.757l-92.776-57.118 92.852 60.845L233.319 178.757zM248.926 148.738l-104.393-33.471 105.123 36.601L248.926 148.738zM248.518 172.422l-83.533-41.113 83.608 44.841L248.518 172.422z" fill="#477d55" stroke-width="none" opacity="1" stroke="none"/>
    </g>
    <g id="svga-group-humanwrap-move" transform="matrix(1,0,0,1,0,0)">
      <g id="svga-group-humanwrap" transform="matrix(1,0,0,1,0,0)">
        <g id="svga-group-hair-back-move" transform="matrix(1,0,0,1,0,0)">
          <g id="svga-group-hair-back" transform="matrix(1,0,0,1,0,0)">
            <path id="SvgjsPath13623" d="M100.5,100.5h-1v-1h1V100.5z" fill="#caa478" stroke-width="none" opacity="1" stroke="none"/>
          </g>
        </g>
        <g id="svga-group-humanbody-single">
          <path id="SvgjsPath13463" d="M195.417 199.778c-2.196-4.746-8.195-11.779-14.86-13.722 -8.239-2.403-26.837-5.308-33.733-6.923 -5.528-1.296-16.662-11.294-20.564-14.65 -0.7-0.6-1.273-1.839-1.287-2.76 -0.139-10.864 4.195-39.724 4.195-39.724H100 70.833c0 0 4.334 28.859 4.193 39.724 -0.011 0.921-0.587 2.16-1.285 2.76 -3.902 3.356-15.036 13.354-20.564 14.65 -6.897 1.615-25.495 4.619-33.733 7.022 -6.667 1.942-12.664 8.876-14.86 13.622 -3.708 8.008-4.584 22.5-4.584 35h100 100C200 222.278 199.123 207.786 195.417 199.778z" fill="#f5af95" stroke-width="none" opacity="1" stroke="none"/>
          <path id="SvgjsPath13464" d="M159.156 184.058c24.342 3.542 34.586 8.708 37.794 50.721H200c0-12.5-0.877-26.992-4.583-35 -2.196-4.746-8.195-11.779-14.86-13.722 -8.239-2.403-26.837-5.308-33.733-6.923 -5.528-1.296-18.242-12.069-21.643-16.35 3.36 4.704 12.791 15.605 21.054 18.46C150.188 182.61 153.48 183.232 159.156 184.058zM53.766 181.244c8.263-2.854 17.693-13.756 21.054-18.46 -3.4 4.28-16.114 15.054-21.643 16.35 -6.896 1.615-25.494 4.619-33.733 7.022 -6.665 1.942-12.664 8.876-14.86 13.622 -3.706 8.008-4.583 22.5-4.583 35h3.05c3.188-41.744 13.475-47.183 37.794-50.721C46.52 183.232 49.813 182.61 53.766 181.244z" fill="#ffc9b5" stroke-width="none" opacity="1" stroke="none"/>
          <path id="SvgjsPath13465" d="M95.646 197.62c0 0-5.074-1.609-7.083-2.379 -10.449-4.009-44.395-6.607-44.395-6.607s35.754 1.419 43.644 2.779c-0.458-4.767-3.017-20.004-3.017-20.004s5.149 16.815 6.409 21.057C91.878 194.734 95.646 197.62 95.646 197.62zM106.445 196.278c-0.089 0.073-0.191 0.168-0.302 0.268C106.256 196.461 106.358 196.372 106.445 196.278zM95.646 197.62c0 0 2.893 2.992 4.347 3.03 1.91 0.051 4.828-2.899 6.151-4.104 -1.265 0.957-4.159 1.391-5.31 1.436C99.504 198.033 95.646 197.62 95.646 197.62zM116.664 190.101c-1.545 0.248-4.386 0.789-4.386 0.789l2.287-14.89c-0.646 3.071-4.474 16.211-8.12 20.278 1.91-1.616 6.158-2.391 8.324-2.704 10.236-1.484 10.232-1.483 41.062-4.94C155.831 188.634 126.76 188.479 116.664 190.101z" fill="#e69375" stroke-width="none" opacity="1" stroke="none"/>
          <path id="SvgjsPath13466" d="M195.417 199.778c-2.196-4.746-8.195-11.779-14.86-13.722 -8.239-2.403-26.837-5.308-33.733-6.923 -5.528-1.296-16.662-11.294-20.564-14.65 -0.7-0.6-1.273-1.839-1.287-2.76 -0.139-10.864 4.195-39.724 4.195-39.724H100 70.833c0 0 4.334 28.859 4.193 39.724 -0.011 0.921-0.587 2.16-1.285 2.76 -3.902 3.356-15.036 13.354-20.564 14.65 -6.897 1.615-25.495 4.619-33.733 7.022 -6.667 1.942-12.664 8.876-14.86 13.622 -3.708 8.008-4.584 22.5-4.584 35h100 100C200 222.278 199.123 207.786 195.417 199.778z" fill="none" stroke="#c7633d" stroke-width="1.5" opacity="1"/>
        </g>
        <g id="svga-group-chinshadow-single">
          <path id="SvgjsPath13760" d="M75.602 162.779c7.126 5.302 15.497 9.087 24.401 9.087 8.902 0 17.269-3.781 24.394-9.08 -0.104-0.358-0.17-0.718-0.175-1.053 -0.088-6.862 1.561-20.607 2.82-30.025 -15.654-1.97-38.431-1.97-54.084 0 1.26 9.419 2.908 23.163 2.819 30.024C75.773 162.063 75.707 162.42 75.602 162.779z" fill="url(#SvgjsLinearGradient13761)" opacity="1"/>
        </g>
        <g id="svga-group-clothes-single">
          <path id="SvgjsPath13741" d="M42.77 235.757l1.323-60.852c0 0 10.194-2.487 16.635-6.313 17.496 21.953 69.451 17.333 78.336-0.62 1.489 0.525 2.721 1.197 4.262 1.713 5 3.386 9.213 4.494 9.213 4.494l0.935 61.685C139.188 236.052 42.77 235.757 42.77 235.757z" fill="#f5f4f5" stroke-width="none" opacity="1"/>
          <path id="SvgjsPath13742" d="M154.014 177.705c-4.236-0.719-7.611-1.697-9.452-3.544 -5.343 10.025-26.763 16.378-33.855 17.309 20.554-6.276 29.188-10.813 32.598-21.583 1.99 2.383 6.522 3.549 12.313 4.538L154.014 177.705zM52.67 174.381c1.454-0.312 2.18-1.234 3.623-1.593l-1.528-1.867c-3.114 2.234-8.971 3.305-15.9 4.424l0.188 3.738c3.956-0.79 7.817-1.788 11.429-3.323 7.483 8.485 19.168 12.659 31.06 14.387C66.624 186.562 58.07 180.511 52.67 174.381z" fill="#ffffff" stroke-width="none" opacity="1"/>
          <path id="SvgjsPath13743" d="M137.861 170.055c-5.929 11.361-50.74 24.595-76.009 0.866 -1.571 0.615-6.271 2.085-6.271 2.085 18.406 23.08 72.345 23.227 86.702-0.112C142.221 172.87 139.321 170.737 137.861 170.055z" fill="#dfdde2" stroke-width="none" opacity="1"/>
          <path id="SvgjsPath13744" d="M139.008 167.841c-10.087 18.575-62.578 21.204-78.239 0.625 -5.72 1.556-11.219 4.876-16.756 5.707l-1.243 61.584 110.703 0.107 -0.855-62.386c-3.369-0.707-6.501-2.737-9.254-3.894C141.842 168.945 140.55 168.37 139.008 167.841zM60.39 169.087c13.903 23.086 68.817 18.455 79.419 0.099 1.286 0.499 1.615 0.696 3.106 1.183 -10.982 21.208-65.306 27.967-87.525 1.147C55.546 171.476 58.823 169.629 60.39 169.087zM54.287 172.418c17.963 27.046 77.26 22.856 89.583-1.287 1.771 1.391 4.53 2.989 7.936 3.735l1.66 59.08 -110.377 0.016 1.904-58.299C47.777 174.264 52.247 173.232 54.287 172.418z" fill="#b8b6c9" stroke-width="none" opacity="1"/>
          <path id="SvgjsPath13745" d="M-4.529 235.566c-2.574-13.852-2.292-47.592 9.013-47.521 13.136-5.311 29.269-11.404 42.802-15.311 6.908-7.246 13.436-14.137 26.188-21.314 0.389 2.599 1.874 8.541 0.011 11.773 -1.355 2.352-5.783 5.576-9.554 8.368 -2.029 2.72-3.927 5.374-6.599 9.089 5.168 22.301 9.601 33.78 10.097 53.123 0 0-1.452 0.689 64.471 0.397 2.215-22.339 4.993-33.561 10.379-54.098 0 0-4.308-5.014-7.207-8.87 -2.054-1.997-8.36-7.532-8.84-8.651 -1.175-2.741-0.548-6.188 0.11-11.367 10.793 4.873 17 12.021 26.082 21.303 7.729 2.119 30.86 9.967 42.445 15.216 3.965-0.11 6.203 1.999 7.872 5.466 5.405 11.195 4.126 27.297 2.18 42.789C185.83 235.989 49.887 238.17-4.529 235.566z" fill="#3f82a4" stroke-width="none" opacity="1" stroke="none"/>
          <path id="SvgjsPath13746" d="M73.875 154.081c0.16 1.07 0.304 2.085 0.411 3.041 -0.218 0.266-17.212 23.353-17.336 23.525C61.126 171.148 67.1 161.305 73.875 154.081zM126.053 154.081c-0.159 1.07-0.184 2.085-0.291 3.041 0.218 0.266 16.931 22.469 17.054 22.642C138.391 170.914 132.828 161.305 126.053 154.081zM165.008 185.154c-4.28 6.231-5.194 8.382-9.879 14.557 1.071 0 2.799 0.166 3.87 0.166C162.663 193.592 162.67 190.393 165.008 185.154zM169.394 230.379c3.793-8.9 6.934-16.711 10.739-25.624l-1.247-2.014C175.717 211.896 172.354 221.199 169.394 230.379zM41.048 199.877c1.071 0 2.799-0.166 3.871-0.166 -4.685-6.175-5.599-6.561-9.878-12.792C37.377 192.158 37.384 193.592 41.048 199.877zM21.161 202.741l-1.247 2.014c3.806 8.913 4.765 16.724 8.559 25.624C25.512 221.199 24.33 211.896 21.161 202.741z" fill="#2a7195" stroke-width="none" opacity="1" stroke="none"/>
          <path id="SvgjsPath13747" d="M65.638 169.283c1.181-1.646 5.237-7.272 8.601-12.561C75.227 162.179 73.413 165.416 65.638 169.283zM125.74 156.36c2.553 4.396 5.562 8.772 8.664 12.803C126 165.336 125.435 161.423 125.74 156.36z" fill="#196185" stroke-width="none" opacity="1" stroke="none"/>
          <path id="SvgjsPath13748" d="M126.318 151.359c0.008-0.061 0.017-0.118 0.023-0.174 18.093 9.999 28.576 25.02 40.747 36.217 -0.448 0.721-1.228 1.193-1.687 1.905C152.656 179.609 146.599 164.946 126.318 151.359zM71.736 152.022c-15.034 8.213-36.242 33.357-38.318 35.269 0.448 0.724 0.691 0.577 1.15 1.288C47.314 178.882 50.793 169.283 71.736 152.022zM194.869 187.704c-1-0.799-24.646-10.039-42.59-14.969 33.698 16.299 45.587 18.545 51.471 24.321C203.367 196.057 202.586 187.489 194.869 187.704zM47.458 172.555c-13.524 3.914-30.839 10.098-42.975 15.491 -5.364 0.106-9.208 7.93-10.031 16.084C1.914 187.317-1.773 198.62 47.458 172.555z" fill="#5794b3" stroke-width="none" opacity="1" stroke="none"/>
          <path id="SvgjsPath13749" d="M206.6 210.062c-0.34-8.635-3.055-23.103-11.691-22.46 -0.714-0.61-20.822-9.767-42.285-15.611 -7.353-7.455-16.515-17.598-26.371-20.957 -0.711 6.428-1.477 10.622 0.216 12.714 2.241 2.439 4.93 4.879 7.568 6.522 4.616 6.136 8.139 9.778 8.139 9.778 -5.43 20.703-8.815 31.314-10.973 53.688H68.798c-2.157-22.373-5.543-32.984-10.973-53.688 0 0 3.522-3.643 8.139-9.778 2.639-1.644 5.327-4.083 7.568-6.522 1.692-2.092 0.927-6.286 0.216-12.714 -9.856 3.359-19.019 13.502-26.371 20.957 -21.463 5.845-41.571 15.001-42.285 15.611 -8.637-0.643-11.352 13.825-11.691 22.46 -0.411 10.487 1.435 24.938 1.585 25.938h210.029C205.165 234.999 207.011 220.549 206.6 210.062zM72.984 163.194c-2.258 2.233-3.658 3.181-6.473 5.282 4.829-6.271 4.341-5.433 7.708-11.229C74.37 159.739 73.433 162.751 72.984 163.194zM-3.172 234.028c-1.082-12.844-2.916-24.41 0.43-36.992 1.281-4.827 2.484-8.095 7.455-8.509 1.067 5.538 8.132 28.724 14.298 44.533 -6.226-24.192-5.311-18.81-8.219-28.452 -0.964-3.235-1.854-6.486-2.979-9.672 -0.783-2.214-1.65-4.387-2.262-6.653l40.433-14.865c-0.279 0.283-12.895 13.434-13.199 13.804 1.847 3.021 7.816 7.222 10.845 11.758 -12.436 1.174-18.508 3.173-23 3.84 0.331 0.919 9.061 25.353 9.976 27.656 -1.479-7.917-4.816-20.297-8.637-27.211 1.41-0.179 18.077-2.492 23.393-3.477 -1.476-2.854-8.043-8.437-11.559-12.619 20.646-18.162 25.422-27.402 39.593-35.454 0.15 1.509 0.443 3.011 0.55 4.519 -15.795 23.533-17.649 23.567-17.649 23.567 4.585 17.81 10.532 35.824 10.532 54.073L-3.172 234.028zM127.016 163.194c-0.448-0.443-1.386-3.455-1.235-5.947 3.367 5.797 2.879 4.958 7.708 11.229C130.674 166.375 129.273 165.428 127.016 163.194zM203.172 234.028l-70-0.154c0-18.249 5.947-36.264 10.532-54.073 0 0-1.854-0.034-17.649-23.567 0.106-1.508 0.399-3.01 0.55-4.519 14.171 8.052 18.946 17.292 39.593 35.454 -3.516 4.183-10.083 9.766-11.559 12.619 5.315 0.984 21.982 3.298 23.393 3.477 -3.82 6.914-7.157 19.294-8.637 27.211 0.915-2.304 9.645-26.737 9.976-27.656 -4.492-0.667-10.564-2.666-23-3.84 3.028-4.536 8.998-8.736 10.845-11.758 -0.305-0.37-12.92-13.521-13.199-13.804 0.001 0 40.433 14.865 40.433 14.865 -0.611 2.267-1.479 4.439-2.262 6.653 -1.125 3.186-2.015 6.437-2.979 9.672 -2.908 9.643-1.993 4.26-8.219 28.452 6.166-15.81 13.23-38.995 14.298-44.533 4.971 0.414 6.174 3.682 7.455 8.509C206.088 209.618 204.254 221.185 203.172 234.028z" fill="#0a5276" stroke-width="none" opacity="1" stroke="none"/>
        </g>
        <g id="svga-group-head" transform="matrix(1,0,0,1,0,0)">
          <g id="svga-group-ears-left-move" transform="matrix(1,0,0,1,0,0)">
            <g id="svga-group-ears-left" transform="matrix(1,0,0,1,0,0)">
              <path id="SvgjsPath13736" d="M46.778 83.613c-2.623-1.48-8.575-8.52-11.138-7.517 -1.655 0.646-2.377 5.504-2.638 7.47 -0.333 2.525-0.929 7.711-0.328 10.185 0.725 2.985 3.631 8.507 5.37 11.027 1.468 2.122 5.211 5.797 6.407 8.088 0.759 1.454 1.493 5.373 4.083 5.12 1.674-0.164 5.537-3.072 5.744-4.452C55.406 106.057 51.943 86.528 46.778 83.613z" fill="#f5af95" stroke="#c7633d" stroke-width="1.5" opacity="1"/>
              <path id="SvgjsPath13737" d="M43.313 99.76c-0.125-0.556 0.006-1.491 0.133-2.395 0.115-0.824 0.224-1.601 0.158-2.151 -0.251-2.06-1.66-5.975-2.578-8.097 -1.059-2.44-2.771-5.515-4.919-6.307 -0.888-0.33-1.473 0.063-1.813 0.461 -0.248 0.292-0.305 0.636-0.223 0.676 0.082 0.041 0.266-0.244 0.535-0.512 0.219-0.219 0.542-0.407 0.983-0.368 -0.178 1.026-1.091 6.582-0.696 10.369 0.311 2.978 1.489 5.202 1.673 5.536 0.028 0.352 0.073 0.695 0.139 1.028 0.869 4.347 4.648 9.29 5.963 10.908 0.243 0.298 0.496 0.476 0.56 0.404 0.062-0.074-0.087-0.368-0.33-0.668 -1.298-1.609-5.042-6.533-5.879-10.728 -0.89-4.45 2.167-11.048 2.849-12.443 0.348 0.655 0.643 1.285 0.87 1.809 0.179 0.412 0.378 0.894 0.581 1.414 -0.402 0.729-3.211 6.042-2.187 10.295 0.38 1.568 2.088 3.589 3.223 4.143 0.624 0.306 0.859 0.761 1.13 1.288 0.314 0.613 0.673 1.307 1.708 1.81 0.211 0.101 0.402 0.144 0.571 0.144 0.293 0 0.515-0.126 0.679-0.281 0.017 0.268 0.016 0.611 0.007 0.928 -0.01 0.411 0.041 0.747 0.129 0.756 0.088 0.008 0.182-0.318 0.192-0.726 0.016-0.503 0.013-1.125-0.067-1.422 -0.232-0.877-0.942-1.867-1.694-2.915C44.27 101.685 43.504 100.618 43.313 99.76zM36.538 95.905c-2.035-6.825 0-13.093 0.458-14.029 0.795 0.785 2.108 2.213 2.679 3.239C39.258 85.938 36.623 91.315 36.538 95.905zM45.318 105.891c-0.938-0.456-1.253-1.067-1.557-1.657 -0.275-0.535-0.56-1.087-1.281-1.44 -0.157-0.077-0.33-0.193-0.505-0.328 -2.324-5.988 0.254-8.606 0.899-9.142 0.199 0.731 0.346 1.403 0.411 1.941 0.061 0.495-0.05 1.28-0.156 2.041 -0.132 0.942-0.268 1.916-0.127 2.546 0.211 0.94 0.999 2.038 1.76 3.1 0.677 0.943 1.373 1.915 1.609 2.708C46.271 105.818 45.949 106.195 45.318 105.891z" fill="#c7633d" stroke-width="none" opacity="1" stroke="none"/>
            </g>
          </g>
          <g id="svga-group-ears-right-move" transform="matrix(1,0,0,1,0,0)">
            <g id="svga-group-ears-right" transform="matrix(1,0,0,1,0,0)">
              <path id="SvgjsPath13738" d="M152.961 83.613c2.623-1.48 8.574-8.52 11.137-7.517 1.656 0.646 2.379 5.504 2.639 7.47 0.334 2.525 0.928 7.711 0.328 10.185 -0.725 2.985-3.631 8.507-5.371 11.027 -1.467 2.122-5.211 5.797-6.406 8.088 -0.76 1.454-1.492 5.373-4.084 5.12 -1.674-0.164-5.535-3.072-5.744-4.452C144.332 106.057 147.795 86.528 152.961 83.613z" fill="#f5af95" stroke="#c7633d" stroke-width="1.5" opacity="1"/>
              <path id="SvgjsPath13739" d="M154.729 102.716c-0.752 1.047-1.463 2.038-1.695 2.915 -0.078 0.297-0.082 0.919-0.066 1.422 0.012 0.407 0.105 0.733 0.193 0.726 0.088-0.009 0.139-0.345 0.129-0.756 -0.01-0.316-0.01-0.66 0.006-0.928 0.164 0.155 0.387 0.281 0.68 0.281 0.168 0 0.359-0.043 0.57-0.144 1.035-0.503 1.395-1.196 1.709-1.81 0.271-0.527 0.506-0.982 1.131-1.288 1.133-0.554 2.842-2.575 3.223-4.143 1.023-4.253-1.785-9.566-2.188-10.295 0.203-0.52 0.402-1.002 0.582-1.414 0.225-0.524 0.521-1.154 0.869-1.809 0.682 1.395 3.738 7.993 2.848 12.443 -0.838 4.195-4.582 9.118-5.879 10.728 -0.242 0.3-0.393 0.594-0.33 0.668 0.064 0.071 0.318-0.106 0.561-0.404 1.314-1.618 5.094-6.561 5.963-10.908 0.066-0.333 0.111-0.677 0.139-1.028 0.184-0.334 1.363-2.558 1.674-5.536 0.395-3.788-0.518-9.343-0.695-10.369 0.441-0.039 0.764 0.149 0.982 0.368 0.268 0.268 0.453 0.552 0.535 0.512 0.08-0.041 0.023-0.384-0.223-0.676 -0.342-0.397-0.926-0.791-1.813-0.461 -2.148 0.792-3.861 3.867-4.92 6.307 -0.92 2.123-2.326 6.037-2.578 8.097 -0.066 0.55 0.043 1.328 0.158 2.151 0.127 0.904 0.256 1.839 0.133 2.395C156.234 100.618 155.469 101.685 154.729 102.716zM160.064 85.115c0.57-1.026 1.883-2.455 2.678-3.239 0.457 0.936 2.494 7.204 0.459 14.029C163.115 91.315 160.48 85.938 160.064 85.115zM153.367 105.66c0.236-0.793 0.932-1.765 1.609-2.708 0.762-1.063 1.549-2.16 1.76-3.1 0.141-0.631 0.006-1.604-0.127-2.546 -0.105-0.76-0.217-1.546-0.156-2.041 0.066-0.539 0.213-1.21 0.412-1.941 0.645 0.536 3.223 3.154 0.898 9.142 -0.176 0.134-0.348 0.25-0.504 0.328 -0.723 0.353-1.008 0.905-1.281 1.44 -0.305 0.59-0.619 1.201-1.559 1.657C153.789 106.195 153.467 105.818 153.367 105.66z" fill="#c7633d" stroke-width="none" opacity="1" stroke="none"/>
            </g>
          </g>
          <g id="svga-group-faceshape-wrap" transform="matrix(1,0,0,1,0,0)">
            <g id="svga-group-faceshape-single">
              <path id="SvgjsPath13757" d="M100.002 0.867C66.381 0.813 39.186 28.343 39.134 62.366c-0.008 5.403 0.669 10.645 1.953 15.641l0.004 0c0.011 0.054 8.713 39.241 14.519 51.175 6.073 12.487 23.814 32.685 44.392 32.685 20.582 0 38.32-20.197 44.392-32.685 5.805-11.935 14.507-51.122 14.519-51.175l0.005 0c1.283-4.997 1.961-10.238 1.952-15.641C160.819 28.343 133.623 0.813 100.002 0.867z" fill="#f5af95" stroke-width="none" opacity="1" stroke="none"/>
              <path id="SvgjsPath13758" d="M120.754 4.512c21.441 9.489 36.411 31.135 36.45 56.363 0.008 5.403-0.669 10.645-1.953 15.641l-0.005 0c-0.011 0.054-8.713 39.24-14.519 51.177 -5.709 11.738-21.608 32.469-40.725 32.469s-35.016-20.73-40.725-32.469c-5.806-11.937-14.507-51.123-14.519-51.177l-0.004 0c-1.284-4.997-1.962-10.238-1.953-15.641 0.038-25.229 15.008-46.874 36.45-56.363 -23.386 8.55-40.076 31.208-40.117 57.854 -0.008 5.403 0.669 10.645 1.953 15.641l0.004 0c0.011 0.054 8.713 39.241 14.519 51.175 6.073 12.487 23.814 32.685 44.392 32.685 20.579 0 38.319-20.197 44.392-32.685 5.805-11.935 14.507-51.122 14.519-51.175l0.005 0c1.283-4.997 1.961-10.238 1.952-15.641C160.83 35.72 144.14 13.062 120.754 4.512z" fill="#eda184" stroke-width="none" opacity="1" stroke="none"/>
              <path id="SvgjsPath13759" d="M100.002 0.867C66.381 0.813 39.186 28.343 39.134 62.366c-0.008 5.403 0.669 10.645 1.953 15.641l0.004 0c0.011 0.054 8.713 39.241 14.519 51.175 6.073 12.487 23.814 32.685 44.392 32.685 20.582 0 38.32-20.197 44.392-32.685 5.805-11.935 14.507-51.122 14.519-51.175l0.005 0c1.283-4.997 1.961-10.238 1.952-15.641C160.819 28.343 133.623 0.813 100.002 0.867z" fill="none" stroke="#c7633d" stroke-width="1.5" opacity="1"/>
            </g>
          </g>
          <g id="svga-group-mouth-single-move" transform="matrix(1,0,0,1,0,0)">
            <g id="svga-group-mouth-single" transform="matrix(1,0,0,1,0,0)">
              <path id="SvgjsPath13725" d="M100.671 140.999c-5.683-0.008-7.963-3.983-7.963-3.983 6.845 2.441 15.408 0.264 15.408 0.264S106.377 141.008 100.671 140.999z" fill="url(#SvgjsLinearGradient13726)" opacity="1"/>
              <path id="SvgjsPath13729" d="M81.783 130.557c3.57-0.112 10.625-0.609 13.211-0.457 1.337 0.079 3.53 0.999 4.971 1.313 1.003 0.22 4.814-0.817 5.842-0.822 2.687-0.017 8.513 1.274 11.642 1.782 0.173 0.027 0 0 0 0s-7.699 6.575-17.56 6.143C88.728 138.025 81.783 130.557 81.783 130.557S81.606 130.562 81.783 130.557z" fill="#da7c87" stroke-width="none" opacity="1" stroke="none"/>
              <path id="SvgjsPath13730" d="M117.743 132.177c-0.085-0.126-0.641-0.245-0.846-0.221 -0.373 0.044-0.643 0.389-1.425 0.458 -0.904 0.084-5.695 0.815-7.002 0.782 -2.629-0.064-5.647 0.561-8.157 0.451 -2.513-0.11-6.464-1.159-9.077-1.344 -1.297-0.092-6.623-1.333-7.505-1.507 -0.759-0.15-0.82-0.506-1.125-0.607 -0.215-0.074-0.832-0.023-0.999 0.09 -0.145 0.1-0.1 0.557 0.001 0.683 0.248 0.305 1.167 0.435 1.838 0.568 0.931 0.184 6.336 1.438 7.67 1.532 2.586 0.186 6.589 1.303 9.123 1.414 2.532 0.112 5.608-0.587 8.21-0.521 1.338 0.034 6.197-0.699 7.156-0.784 0.694-0.064 1.556-0.179 1.876-0.402C117.634 132.664 117.826 132.309 117.743 132.177z" fill="#ac2e3d" stroke-width="none" opacity="1" stroke="none"/>
              <path id="SvgjsPath13731" d="M99.999 137.244c-4.411-0.192-11.369-1.912-14.032-4.152 1.629 0.195 5.155 0.481 6.772 0.693 1.997 0.265 4.761 1.003 6.795 1.192 2.196 0.202 5.2-0.237 7.342-0.422 1.79-0.153 4.563-0.661 6.35-0.72C110.221 135.628 104.257 137.43 99.999 137.244zM107.157 132.606c1.602-0.081 4.101-0.628 5.694-0.675 -1.796-0.491-4.499-0.493-6.406-0.697 -1.646-0.174-4.155 0.69-5.787 0.804 -1.838 0.132-4.022-1.204-5.733-1.333 -1.857-0.138-5.733 0.283-7.555 0.604 1.556 0.17 4.94 0.433 6.472 0.682 1.878 0.306 4.573 0.966 6.522 1.052C102.362 133.131 105.183 132.708 107.157 132.606z" fill="#e28c96" stroke-width="none" opacity="1" stroke="none"/>
              <path id="SvgjsPath13732" d="M100.006 136.455c-2.626-0.118-6.989-1.062-8.873-2.365 0.482 0.022 1.884 0.146 2.348 0.189 0.146 0.015 0.293 0.031 0.438 0.05 0.757 0.101 1.489 0.304 2.271 0.515 0.759 0.207 2.481 0.47 3.329 0.557 0.167 0.019 0.333 0.027 0.501 0.034 1.043 0.048 2.983-0.061 3.943-0.21 0.609-0.095 1.182-0.192 1.77-0.247 0.32-0.032 0.669-0.047 1.061-0.049 0.336-0.003 0.689 0.006 1.036 0.017C106.063 135.841 102.713 136.574 100.006 136.455z" fill="#e99ca5" stroke-width="none" opacity="1" stroke="none"/>
              <path id="SvgjsPath13733" d="M79.382 131.481c0 0-0.708-1.188-0.609-1.633 0.139-0.619 1.923-1.85 1.923-1.85s-1.08 1.415-1.247 1.863C79.288 130.294 79.382 131.481 79.382 131.481z" fill="#c7633d" stroke-width="none" opacity="1" stroke="none"/>
            </g>
          </g>
          <g id="svga-group-eyes-left-move" transform="matrix(1,0,0,1,0,0)">
            <g id="svga-group-eyes-left" transform="matrix(1,0,0,1,0,0)">
              <g id="svga-group-eyesback-left">
                <path id="SvgjsPath13645" d="M76.732 78.383c4.587 0.679 7.931 3.488 10.773 7.94 0.004 0.005 0.013 0.004 0.018 0.008 0.007 0.027 0.021 0.053 0.026 0.08 0.255 1.007-0.816 1.819-2.155 2.438 -4.771 0.609-9.359 1.489-14.194 0.87 -9.681-1.241-9.855-5.509-10.326-6.629 -0.252-1.101-0.325-1.417-0.311-2.473 2.332-1.366 4.043-1.647 5.854-2.005C68.541 78.194 73.268 77.868 76.732 78.383z" fill="url(#SvgjsRadialGradient13646)" opacity="1"/>
              </g>
              <g id="svga-group-eyesiriswrapper-left" transform="matrix(1,0,0,1,0.25,0)">
                <g id="svga-group-eyesiriscontrol-left" transform="matrix(1,0,0,1,0,0)">
                  <g id="svga-group-eyesiris-left" transform="matrix(1,0,0,1,0,0)">
                    <path id="SvgjsPath13703" d="M79.788 85.588c-0.869 3.192-4.16 5.073-7.358 4.196 -3.195-0.876-5.083-4.178-4.212-7.371 0.868-3.195 4.167-5.076 7.362-4.198C78.773 79.09 80.658 82.392 79.788 85.588z" fill="#724f7c" stroke="#431a4e" stroke-width="0.5" opacity="1"/>
                    <path id="SvgjsPath13704" d="M73.265 80.413l-0.156-0.279c-0.548 0.218-1.076 0.445-1.575 0.687l0.37 0.894 -0.047 0.517 -1.426-0.839c-0.466 0.259-0.898 0.529-1.318 0.804l0.004 0.009 -0.489 0.55 0.781 0.799 -1.052 0.574 0.398 0.657 1.857 0.185 -1.741 1.181 1.863-0.103 -0.982 1.693 2.297-1.39 -0.618 2.364 1.329-2.184 0.256 2.343 0.384-2.072 0.353-0.043 0.5 2.35 0.152-0.705c0.201-0.052 0.718 0.704 0.915 0.651L74.736 86.5l1.282 2.556 -0.52-2.651 1.578 2.05c0.057-0.018 0.196-0.85 0.252-0.867l-0.982-1.469 1.785 0.539 -1.071-1.16 -0.86-0.712 3.586 0.803 -1.997-1.217 1.411-0.577 -3.055-0.309 3.021-1.602 -2.734 0.698 -0.736-0.399 -0.181-0.354 0.052-0.846 0.061-1.389 -1.248 2.198 -0.11-1.609 -0.157-0.421c-0.25 0.087-0.495 0.172-0.736 0.265L73.265 80.413z" fill="#83678b" stroke-width="none" opacity="1" stroke="none"/>
                    <path id="SvgjsPath13705" d="M79.856 82.755c-5.242 0.239-7.907 1.36-11.707 2.631 -0.732-3.229 1.298-6.438 4.53-7.164S79.125 79.525 79.856 82.755z" fill="#623a6d" stroke-width="none" opacity="0.9" stroke="none"/>
                    <path id="SvgjsPath13706" d="M74.869 81.998c-1.319-0.378-2.666 0.375-3.005 1.69 -0.342 1.308 0.452 2.678 1.771 3.056 1.32 0.379 2.667-0.375 3.009-1.684C76.987 83.745 76.19 82.376 74.869 81.998z" fill="#000000" stroke-width="none" opacity="0.8"/>
                    <path id="SvgjsPath13707" d="M74.869 81.998c-1.319-0.378-2.666 0.375-3.005 1.69 -0.342 1.308 0.452 2.678 1.771 3.056 1.32 0.379 2.667-0.375 3.009-1.684C76.987 83.745 76.19 82.376 74.869 81.998z" fill="none" stroke="#431a4e" stroke-width="0.75" opacity="1"/>
                    <path id="SvgjsPath13708" d="M69.631 87.56c0.613 0.973 1.426 1.706 2.578 1.95 1.326 0.281 1.477-1.483 0.528-1.685 -0.72-0.152-1.176-0.505-1.552-1.102C70.497 85.63 69.079 86.684 69.631 87.56L69.631 87.56z" fill="#ffffff" stroke-width="none" opacity="0.4"/>
                    <path id="SvgjsPath13709" d="M75.033 81.493c0.929 0.187 1.469 0.768 1.938 1.64 0.862 1.604 3.299 0.178 2.437-1.425 -0.757-1.408-2.019-2.613-3.625-2.938C73.726 78.355 73.438 81.171 75.033 81.493L75.033 81.493z" fill="url(#SvgjsLinearGradient13710)" opacity="1"/>
                  </g>
                </g>
              </g>
              <g id="svga-group-eyesfront-left">
                <path id="SvgjsPath13670" d="M55.112 83.583c3.224 11.315 7.475 23.313 17.685 23.669s22.135-7.239 22.29-22.238c0.173-16.767-10.474-23.381-20.684-23.737S50.307 66.714 55.112 83.583zM60.875 83.09c-0.252-1.101-0.325-1.417-0.311-2.473 2.027-1.21 4.04-1.547 5.851-1.905 2.123-0.418 6.853-0.845 10.317-0.329 4.587 0.679 7.931 3.488 10.773 7.94 0.004 0.005 0.013 0.004 0.018 0.008 0.007 0.027 0.021 0.053 0.026 0.08 0.255 1.007-0.816 1.819-2.155 2.438 -4.771 0.609-9.359 1.489-14.194 0.87C61.519 88.478 61.345 84.21 60.875 83.09z" fill="#f5af95" stroke-width="none" opacity="1" stroke="none"/>
                <path id="SvgjsPath13671" d="M74.225 95.171c9.256 1.401 17.847-3.01 19.186-9.859 1.34-6.849-5.072-13.537-14.329-14.94 -9.258-1.399-17.845 3.012-19.185 9.862C58.557 87.082 64.967 93.766 74.225 95.171zM60.563 80.617c2.125-1.141 4.04-1.547 5.851-1.905 2.123-0.418 6.853-0.845 10.317-0.329 4.587 0.679 7.931 3.488 10.773 7.94 0.004 0.005 0.013 0.004 0.018 0.008 0.007 0.027 0.021 0.053 0.026 0.08 0.255 1.007-0.816 1.819-2.155 2.438 -4.771 0.609-9.359 1.489-14.194 0.87 -9.681-1.241-9.855-5.509-10.326-6.629C60.622 81.989 60.55 81.672 60.563 80.617z" fill="url(#SvgjsRadialGradient13672)" opacity="1"/>
                <path id="SvgjsPath13676" d="M60.875 83.09c-0.252-1.101-0.325-1.417-0.311-2.473 2.092-1.175 4.04-1.547 5.851-1.905 2.123-0.418 6.853-0.845 10.317-0.329 4.587 0.679 7.931 3.488 10.773 7.94 0.004 0.005 0.013 0.004 0.018 0.008 0.007 0.027 0.021 0.053 0.026 0.08 0.255 1.007-0.816 1.819-2.155 2.438 -4.771 0.609-9.359 1.489-14.194 0.87C61.519 88.478 61.345 84.21 60.875 83.09z" fill="url(#SvgjsRadialGradient13677)" opacity="1"/>
                <path id="SvgjsPath13680" d="M76.327 75.748c3.294 0.539 6.505 2.054 9.48 3.945 0.637 0.404 1.366 0.865 2.521 1.451 -0.828-0.188-1.594-0.617-2.309-1.011 0.736 0.698 1.422 1.529 1.982 2.334 -2.521-3.159-7.297-5.538-11.36-6.349 -3.902-0.779-10.989-0.264-16.251 2.042C65.208 75.449 72.237 75.08 76.327 75.748z" fill="#c7633d" stroke-width="none" opacity="1" stroke="none"/>
                <path id="SvgjsPath13681" d="M87.508 86.277c-2.847-4.34-6.193-7.082-10.781-7.747 -4.833-0.705-11.271-0.221-15.034 1.843 -0.308 0.169-1.607 1.249-1.401 0.117 0.874-1.167 4.322-2.523 5.993-2.928C85.03 73.019 88.582 87.854 87.508 86.277zM60.646 82.841c-0.716 2.063 0.861 6.654 10.145 7.503 6.595 0.602 15.767-1.75 14.634-1.613 -4.779 0.589-9.375 1.449-14.219 0.839C60.224 88.19 61.468 83.023 60.646 82.841z" fill="#2c1630" stroke-width="none" opacity="1" stroke="none"/>
              </g>
            </g>
          </g>
          <g id="svga-group-eyes-right-move" transform="matrix(1,0,0,1,0,0)">
            <g id="svga-group-eyes-right" transform="matrix(1,0,0,1,0,0)">
              <g id="svga-group-eyesback-right">
                <path id="SvgjsPath13653" d="M122.867 78.383c-4.586 0.679-7.931 3.488-10.773 7.94 -0.004 0.005-0.012 0.004-0.018 0.008 -0.006 0.027-0.02 0.053-0.025 0.08 -0.256 1.007 0.815 1.819 2.154 2.438 4.771 0.609 9.359 1.489 14.194 0.87 9.681-1.241 9.855-5.509 10.325-6.629 0.253-1.101 0.325-1.417 0.312-2.473 -2.331-1.366-4.043-1.647-5.854-2.005C131.059 78.194 126.332 77.868 122.867 78.383z" fill="url(#SvgjsRadialGradient13654)" opacity="1"/>
              </g>
              <g id="svga-group-eyesiriswrapper-right" transform="matrix(1,0,0,1,-0.25,0)">
                <g id="svga-group-eyesiriscontrol-right" transform="matrix(1,0,0,1,0,0)">
                  <g id="svga-group-eyesiris-right" transform="matrix(1,0,0,1,0,0)">
                    <path id="SvgjsPath13713" d="M131.788 85.587c-0.869 3.193-4.16 5.074-7.358 4.196 -3.195-0.876-5.082-4.178-4.212-7.371 0.867-3.195 4.167-5.076 7.361-4.198C130.774 79.091 132.658 82.393 131.788 85.587z" fill="#724f7c" stroke="#431a4e" stroke-width="0.5" opacity="1"/>
                    <path id="SvgjsPath13714" d="M125.266 80.413l-0.155-0.278c-0.548 0.217-1.076 0.445-1.576 0.686l0.37 0.894 -0.047 0.517 -1.426-0.839c-0.467 0.259-0.898 0.529-1.317 0.804l0.004 0.009 -0.49 0.551 0.782 0.799 -1.052 0.573 0.397 0.657 1.857 0.185 -1.741 1.181 1.863-0.103 -0.982 1.692 2.296-1.39 -0.616 2.364 1.328-2.184 0.257 2.343 0.384-2.073 0.353-0.043 0.501 2.35 0.151-0.704c0.201-0.052 0.719 0.703 0.915 0.651l-0.585-2.556 1.283 2.556 -0.521-2.651 1.577 2.05c0.057-0.018 0.197-0.85 0.253-0.867l-0.982-1.469 1.786 0.538 -1.071-1.16 -0.859-0.712 3.586 0.802 -1.997-1.216 1.411-0.577 -3.054-0.308 3.021-1.603 -2.734 0.698 -0.736-0.399 -0.18-0.354 0.052-0.847 0.061-1.388 -1.247 2.198 -0.11-1.609 -0.156-0.422c-0.25 0.087-0.495 0.173-0.735 0.265L125.266 80.413z" fill="#83678b" stroke-width="none" opacity="1" stroke="none"/>
                    <path id="SvgjsPath13715" d="M131.855 82.755c-5.24 0.239-7.906 1.36-11.706 2.631 -0.731-3.229 1.298-6.438 4.53-7.164C127.911 77.495 131.126 79.525 131.855 82.755z" fill="#623a6d" stroke-width="none" opacity="0.9" stroke="none"/>
                    <path id="SvgjsPath13716" d="M126.87 81.998c-1.319-0.378-2.666 0.376-3.005 1.69 -0.343 1.308 0.451 2.678 1.77 3.056 1.322 0.379 2.668-0.375 3.009-1.684C128.987 83.745 128.189 82.376 126.87 81.998z" fill="#000000" stroke-width="none" opacity="0.8"/>
                    <path id="SvgjsPath13717" d="M126.87 81.998c-1.319-0.378-2.666 0.376-3.005 1.69 -0.343 1.308 0.451 2.678 1.77 3.056 1.322 0.379 2.668-0.375 3.009-1.684C128.987 83.745 128.189 82.376 126.87 81.998z" fill="none" stroke="#431a4e" stroke-width="0.75" opacity="1"/>
                    <path id="SvgjsPath13718" d="M121.632 87.56c0.612 0.973 1.426 1.706 2.577 1.95 1.326 0.281 1.478-1.482 0.528-1.685 -0.72-0.152-1.177-0.504-1.552-1.102C122.498 85.63 121.079 86.684 121.632 87.56L121.632 87.56z" fill="#ffffff" stroke-width="none" opacity="0.4"/>
                    <path id="SvgjsPath13719" d="M127.034 81.493c0.929 0.187 1.469 0.767 1.938 1.639 0.862 1.604 3.3 0.178 2.437-1.425 -0.757-1.408-2.018-2.613-3.625-2.938C125.727 78.355 125.438 81.171 127.034 81.493L127.034 81.493z" fill="url(#SvgjsLinearGradient13720)" opacity="1"/>
                  </g>
                </g>
              </g>
              <g id="svga-group-eyesfront-right">
                <path id="SvgjsPath13691" d="M125.197 61.277c-10.211 0.356-20.857 6.97-20.685 23.737 0.154 15 12.079 22.595 22.29 22.238 10.21-0.356 16.187-17.323 17.685-23.669C148.517 66.512 135.407 60.921 125.197 61.277zM128.399 89.719c-4.835 0.619-9.423-0.261-14.194-0.87 -1.339-0.618-2.41-1.43-2.154-2.438 0.006-0.027 0.02-0.053 0.025-0.08 0.006-0.004 0.014-0.003 0.018-0.008 2.843-4.452 6.188-7.261 10.773-7.94 3.465-0.516 8.195-0.089 10.318 0.329 1.811 0.357 3.824 0.694 5.851 1.905 0.014 1.055-0.059 1.372-0.312 2.473C138.255 84.21 138.08 88.478 128.399 89.719z" fill="#f5af95" stroke-width="none" opacity="1" stroke="none"/>
                <path id="SvgjsPath13692" d="M139.703 80.234c-1.34-6.85-9.928-11.261-19.186-9.862 -9.257 1.403-15.669 8.091-14.328 14.94 1.339 6.849 9.93 11.26 19.186 9.859C134.633 93.766 141.043 87.082 139.703 80.234zM138.725 83.09c-0.47 1.121-0.645 5.388-10.325 6.629 -4.835 0.619-9.423-0.261-14.194-0.87 -1.339-0.618-2.41-1.43-2.154-2.438 0.006-0.027 0.02-0.053 0.025-0.08 0.006-0.004 0.014-0.003 0.018-0.008 2.843-4.452 6.188-7.261 10.773-7.94 3.465-0.516 8.195-0.089 10.318 0.329 1.811 0.357 3.727 0.764 5.851 1.905C139.05 81.672 138.978 81.989 138.725 83.09z" fill="url(#SvgjsRadialGradient13693)" opacity="1"/>
                <path id="SvgjsPath13697" d="M138.725 83.09c0.253-1.101 0.325-1.417 0.312-2.473 -2.092-1.175-4.04-1.547-5.851-1.905 -2.123-0.418-6.854-0.845-10.318-0.329 -4.586 0.679-7.931 3.488-10.773 7.94 -0.004 0.005-0.012 0.004-0.018 0.008 -0.006 0.027-0.02 0.053-0.025 0.08 -0.256 1.007 0.815 1.819 2.154 2.438 4.771 0.609 9.359 1.489 14.194 0.87C138.08 88.478 138.255 84.21 138.725 83.09z" fill="url(#SvgjsRadialGradient13698)" opacity="1"/>
                <path id="SvgjsPath13701" d="M123.273 75.748c-3.295 0.539-6.506 2.054-9.48 3.945 -0.637 0.404-1.367 0.865-2.521 1.451 0.828-0.188 1.594-0.617 2.309-1.011 -0.736 0.698-1.422 1.529-1.982 2.334 2.521-3.159 7.297-5.538 11.359-6.349 3.902-0.779 10.989-0.264 16.252 2.042C134.391 75.449 127.362 75.08 123.273 75.748z" fill="#c7633d" stroke-width="none" opacity="1" stroke="none"/>
                <path id="SvgjsPath13702" d="M133.314 77.563c1.672 0.405 5.119 1.761 5.994 2.928 0.205 1.132-1.094 0.052-1.402-0.117 -3.764-2.064-10.201-2.548-15.033-1.843 -4.588 0.665-7.936 3.407-10.781 7.747C111.018 87.854 114.57 73.019 133.314 77.563zM128.395 89.57c-4.844 0.61-9.439-0.25-14.219-0.839 -1.134-0.137 8.038 2.215 14.633 1.613 9.284-0.849 10.861-5.44 10.145-7.503C138.131 83.023 139.376 88.19 128.395 89.57z" fill="#2c1630" stroke-width="none" opacity="1" stroke="none"/>
              </g>
            </g>
          </g>
          <g id="svga-group-facehighlight-single">
            <path id="SvgjsPath13455" d="M141 113.974c0.035 22.622-18.292 40.994-40.938 41.025 -22.642 0.037-41.028-18.273-41.063-40.9 -0.035-22.62 18.292-41.064 40.937-41.1C122.579 72.964 140.967 91.349 141 113.974z" fill="url(#SvgjsRadialGradient13456)" opacity="1"/>
            <path id="SvgjsPath13459" d="M137.5 53.999c0 20.711-16.789 37.5-37.499 37.5 -20.711 0-37.501-16.789-37.501-37.5s16.79-37.5 37.501-37.5C120.711 16.499 137.5 33.288 137.5 53.999z" fill="url(#SvgjsRadialGradient13460)" opacity="1"/>
          </g>
          <g id="svga-group-eyebrows-left-move" transform="matrix(1,0,0,1,0,0)">
            <g id="svga-group-eyebrows-left-rotate" transform="matrix(1,0,0,1,0,0)">
              <g id="svga-group-eyebrows-left" transform="matrix(1,0,0,1,0,0)">
                <path id="SvgjsPath13723" d="M74.799 71.28c-4.425-0.475-21.252 3.714-21.252 3.714s16.789-6.74 23.757-5.667c5.188 0.798 14.397 5.077 12.706 7.339C88.649 78.487 84.408 72.312 74.799 71.28z" fill="#caa478" stroke-width="none" opacity="1" stroke="none"/>
              </g>
            </g>
          </g>
          <g id="svga-group-eyebrows-right-move" transform="matrix(1,0,0,1,0,0)">
            <g id="svga-group-eyebrows-right-rotate" transform="matrix(1,0,0,1,0,0)">
              <g id="svga-group-eyebrows-right" transform="matrix(1,0,0,1,0,0)">
                <path id="SvgjsPath13724" d="M109.731 76.398c-1.713-2.292 7.592-6.31 13.546-6.804 7.117-0.59 22.914 4.085 22.914 4.085s-15.9-2.628-20.377-2.106C115.998 72.718 111.11 78.243 109.731 76.398z" fill="#caa478" stroke-width="none" opacity="1" stroke="none"/>
              </g>
            </g>
          </g>
          <g id="svga-group-nose-single-move" transform="matrix(1,0,0,1,0,0)">
            <g id="svga-group-nose-single" transform="matrix(1,0,0,1,0,0)">
              <path id="SvgjsPath13734" d="M105.07 117.886c1.053 0 1.338 0.28 1.338 0.625 0 0.347-0.328 0.879-1.338 0.624 -1.109-0.276-3.046-0.148-3.046-0.148S104.018 117.886 105.07 117.886zM95.017 117.886c-1.054 0.001-1.337 0.282-1.337 0.628 -0.001 0.345 0.317 0.842 1.337 0.624 1.125-0.241 3.046-0.149 3.046-0.149S96.071 117.89 95.017 117.886zM108.609 114.148c0 0 1.458 1.654 1.154 3.403 -0.294 1.699-3.238 2.447-3.238 2.447s2.044-1.297 2.292-2.873C108.933 116.39 108.609 114.148 108.609 114.148zM90.617 112.446c0 0-1.063 2.316-0.755 3.727 0.558 2.547 3.625 3.565 3.625 3.565s-1.914-1.747-2.594-3.291C90.149 114.763 90.617 112.446 90.617 112.446z" fill="#c7633d" stroke-width="none" opacity="1" stroke="none"/>
              <path id="SvgjsPath13735" d="M105.019 115.38c1.021-0.761 1.124-1.195 0.912-1.479 -0.21-0.284-0.823-0.464-1.678 0.453 -0.942 1.012-2.991 1.758-2.991 1.758S103.997 116.143 105.019 115.38z" fill="#ffc9b5" stroke-width="none" opacity="1" stroke="none"/>
            </g>
          </g>
          <g id="svga-group-beardwrap" transform="matrix(1,0,0,1,0,0)">
            <g id="svga-group-beard-single-move" transform="matrix(1,0,0,1,0,0)">
              <g id="svga-group-beard-single" transform="matrix(1,0,0,1,0,0)">
                <path id="SvgjsPath13473" d="M100,18.13L100,18.13L100,18.13L100,18.13z" fill="#2a232b" stroke-width="none" opacity="1"/>
              </g>
            </g>
          </g>
          <g id="svga-group-mustache-single-move" transform="matrix(1,0,0,1,0,0)">
            <g id="svga-group-mustache-single" transform="matrix(1,0,0,1,0,0)">
              <path id="SvgjsPath13471" d="M100,18.13L100,18.13L100,18.13L100,18.13z" fill="#2a232b" stroke-width="none" opacity="1"/>
            </g>
          </g>
          <g id="svga-group-hair-front" transform="matrix(1,0,0,1,0,0)">
            <path id="SvgjsPath13625" d="M150.81 99.442c-0.208 0-0.427-0.01-0.651-0.029 -1.972-6.396 0.331-15.486 4.25-20.951 -2.674-7.41 2.494-3.557 1.635-12.393 -0.155-1.27 0.052-2.412 0.479-3.584 -1.269-3.313-1.619-7.189-1.198-9.319 -3.629-9.571-4.898-3.055-6.83-14.894 -2.96-1.071-8.371-5.169-10.667-6.959 -5.957-4.648-14.879 9.828-22.333 4.959 -4.442 4.032-12.805 3.311-15.521 2.409 -3.829 1.928-11.513 0.935-15.506-2.411 -6.414 4.608-9.373-6.881-20.2-6.579 -6.807 4.91-4.954 5.704-12.766 8.582 -0.698 4.549-0.054 5.279-3.703 9.208 -2.154 2.286-2.162 3.08-3.032 5.394l-0.156 0 0.053 0.271 -0.038 0.099 0.071 0.074c0.474 2.586-0.39 6.584-1.227 9.184 1.617 4.484-1.381 5.75 1.942 10.274 1.073 1.461 1.47 2.024 0.169 5.686 4.717 6.58 6.05 16.876 4.265 20.953 -7.124 0.687-6.721-9.202-7.304-12.656 -1.365-9.695-11.698-2.623-9.94-11.778 -2.641-2.091-1.968-4.754-1.073-8.9 -2.452-5.161-7.248-23.656 0.681-28.05 -0.558-6.983 2.841-13.939 8.591-16.91 0.856-6.626 9.141-16.875 15.649-15.523 1.494-7.913 15.707-17.864 21.96-13.427 4.878-4.65 15.003-6.226 21.571-4.299 7.221-1.883 16.184-0.474 21.605 4.291 6.435-4.408 20.349 5.649 21.952 13.405 7.113-0.673 14.411 8.336 15.669 15.567 5.934 3.057 9.076 10.023 8.574 16.897 7.476 4.135 3.791 20.938 0.694 28.041 0.689 3.6 1.757 6.655-1.079 8.909 1.897 9.601-8.953 0.934-10.171 13.722C156.838 92.721 156.198 99.442 150.81 99.442L150.81 99.442z" fill="#caa478" stroke-width="none" opacity="1" stroke="none"/>
            <path id="SvgjsPath13626" d="M160.293 77.838c-0.832 0.07-1.664-1.301-2.496-1.301 0-5.101 3.042-8.163 6.084-11.223 -1.014 0-2.027-2.041-3.042-1.021 -3.042-5.102 2.028-10.203 4.057-14.285 -6.085 1.021-11.154-6.121-7.099-11.223 0.704 0 1.408-0.982 2.112-1.242 -3.592-0.822-6.327-1.118-8.196-4.88 -1.014-3.061 0-6.122 2.028-9.182 -6.084 4.082-14.196 2.041-18.251-4.081 0-1.021 0-3.062 0-4.082 -2.029 5.102-7.099 9.182-13.183 7.142 -1.646 0-4.63-1.345-5.694-4.037 0.181 2.555-0.609 5.058-1.404 5.058 -6.084 3.06-14.195-1.021-15.209-8.163 0 4.082-2.028 9.182-4.056 10.203 -5.07 3.061-11.154-3.062-9.126-10.203 -2.028 7.142-8.112 10.203-14.196 8.163 -3.042-1.021-7.098-3.061-7.098-8.163 -3.042 7.142-11.154 14.284-16.224 5.102 3.042 8.162-2.577 17.345-8.244 17.345 4.015 5.491 1.147 17.345-5.951 17.345 8.111 2.041 4.056 11.223 5.069 17.345 -0.905 0-1.811 1.623-2.717 1.243 8.477 5.359 10.408 15.83 12.063 25.733 0.107-0.005 0.211-0.006 0.323-0.016 1.785-4.077 0.452-14.374-4.265-20.953 1.301-3.662 0.904-4.225-0.169-5.686 -3.323-4.524-0.325-5.79-1.942-10.274 0.837-2.599 1.701-6.598 1.227-9.184l-0.071-0.074 0.038-0.099 -0.053-0.271 0.156 0c0.87-2.314 0.878-3.108 3.032-5.394 3.649-3.93 3.005-4.66 3.703-9.208 7.813-2.878 5.959-3.672 12.766-8.582 10.827-0.302 13.786 11.187 20.2 6.579 3.993 3.346 11.677 4.338 15.506 2.411 2.717 0.902 11.079 1.623 15.521-2.409 7.454 4.869 16.376-9.607 22.333-4.959 2.296 1.79 7.707 5.888 10.667 6.959 1.932 11.839 3.201 5.323 6.83 14.894 -0.421 2.13-0.07 6.007 1.198 9.319 -0.427 1.172-0.634 2.314-0.479 3.584 0.859 8.836-4.309 4.983-1.635 12.393 -3.695 5.154-5.95 13.526-4.543 19.829C148.86 90.198 152.749 81.539 160.293 77.838z" fill="#bb8f5c" stroke-width="none" opacity="1" stroke="none"/>
            <path id="SvgjsPath13627" d="M132.061 10.84c1.719-1.024 8.918-0.546 10.395-5.612C142.833 11.226 136.312 11.595 132.061 10.84zM148.412 10.075c2.97 0.951 4.813 6.225 5.07 7.524C154.263 14.153 152.04 9.675 148.412 10.075zM149.553 16.707c1.437 1.297 0.971 5.101 0.507 6.122C151.689 21.296 151.909 17.608 149.553 16.707zM147.398 17.982c0.111 2.74-0.195 4.648-1.648 6.632C148.398 23.297 148.441 20.748 147.398 17.982zM155.383 23.339c0.788-0.513 5.585-0.415 6.084 0.766C161.489 21.83 156.615 21.84 155.383 23.339zM153.482 28.058c4.019-0.083 3.455-1.2 7.604-0.893C158.206 25.239 155.729 27.129 153.482 28.058zM158.806 29.716c-0.858 1.02-2.829 1.62-2.915 4.208C157.111 31.625 157.822 31.719 158.806 29.716zM162.861 36.093c3.256 1.638 4.257 3.755 5.07 7.27C168.833 39.356 167.064 36.289 162.861 36.093zM164.129 40.684c1.822 1.815 1.932 5.626 0.887 8.035C167.424 46.734 167.503 42.097 164.129 40.684zM162.607 43.618c-0.374 1.859-1.179 2.688-2.154 4.846C162.014 47.274 162.925 45.685 162.607 43.618zM163.621 55.606 163.621 55.606c1.053 3.215 1.918 4.353 0.635 6.505C166.854 60.487 165.595 57.942 163.621 55.606zM162.101 56.755c-0.05 1.904-0.276 3.379-1.394 5.739C162.271 61.371 163.026 59.411 162.101 56.755zM127.752 13.263c0.51 2.492 4.538 3.179 4.538 3.179 1.04 0.244 2.542 0.184 3.447-0.5C134.647 16.127 128.78 14.629 127.752 13.263zM122.809 8.8c1.536-2.926 4.926-4.827 8.111-5.357C126.71 2.296 123.261 4.881 122.809 8.8zM120.4-3.827c1.942 1.783 1.96 4.773 2.027 8.672C123.975 1.994 123.902-2.445 120.4-3.827zM121.414-5.485c1.539 0.299 3.979 4.701 4.184 5.74C126.17-2.325 123.604-5.916 121.414-5.485zM118.879-1.786c0.318 3.139 0.03 5.48-1.646 8.162C120.269 4.559 120.521 1.362 118.879-1.786zM115.711 7.652c-5.082 0.921-7.161 7.895-5.45 12.499C110.482 18.128 112.168 10.188 115.711 7.652zM110.641 3.825c-9.45 3.409-8.715 14.028-5.07 16.453C104.695 18.888 103.081 10.255 110.641 3.825zM99.614 4.081c-5.041 7.576 0.793 12.744 2.918 16.666C101.128 15.722 97.8 10.264 99.614 4.081zM107.473-2.806c-1.478 0.201-5.937-0.941-6.338 2.55C102.744-2.686 105.359-1.298 107.473-2.806zM110.768-4.464c-4.262-4.366-5.752-2.456-6.465-1.914C106.896-7.17 108.012-5.867 110.768-4.464zM108.613-9.821c3.063 0.032 5.401 2.261 6.211 5.229C115.605-8.087 112.316-11.478 108.613-9.821zM78.193-0.639c3.703-3.293 7.981-6.629 12.421-5.102C86.39-9.9 80.756-5.989 78.193-0.639zM83.137-0.128c-7.265 6.348-1.188 12.163 1.141 11.861C83.263 11.249 79.169 7.446 83.137-0.128zM85.291 4.335c1.063 0.854 1.756 1.699 2.028 4.846C88.166 7.073 87.671 5.06 85.291 4.335zM92.896-0.639c0.103 0.381 1.558 5.335 1.167 5.335 -0.128 1.343-0.398 1.915-1.04 3.083C97.603 5.28 93.521 0.39 92.896-0.639zM92.263-3.699c4.813-0.473 4.962 5.761 4.689 7.524C99.773-0.397 96.927-6.515 92.263-3.699zM80.221 13.901c2.226 0.595 0.982 3.246 1.268 7.015C82.734 18.018 83.297 13.608 80.221 13.901zM75.166 9.612c-2.058-8.338-8.633-6.934-8.633-6.934 1.32-0.367 6.271 3.712 7.03 9.422 0.219 1.134 0.444 3.079 0.701 4.607C74.584 15.687 75.839 11.99 75.166 9.612zM68.307 8.162c2.32 1.8 0.981 7.046 0 9.821C71.302 15.007 72.167 9.307 68.307 8.162zM64.505 9.437c1.449 1.902-1.703 5.647-3.676 8.163C64.029 16.283 67.604 11.589 64.505 9.437zM69.194-6.25c-2.841-0.465-5.571 3.311-4.816 6.122C64.731-1.832 67.176-5.672 69.194-6.25zM67.8-2.551c-2.279 0.454-2.191 3.93-1.141 5.356C66.538 1.785 66.504-2.082 67.8-2.551zM53.351 11.478c-4.011-1.786-7.875-0.083-8.492 3.955C46.927 12.637 49.917 11.543 53.351 11.478zM51.069 15.049c-2.755-1.719-6.26 1.727-5.577 4.847C45.919 17.705 48.8 14.798 51.069 15.049zM49.422 18.365c-3.4 0.307-3.967 5.263-1.901 6.887C46.738 23.542 47.416 19.313 49.422 18.365zM40.93 23.722c2.196 1.012 4.552 2.976 4.277 2.976 0.792 1.14 0.959 1.559 1.299 2.891C47.386 25.745 44.818 24.23 40.93 23.722zM42.704 28.186c1.926 1.488 3.417 4.226 2.155 7.015C47.482 33.076 46.363 29.374 42.704 28.186zM40.485 29.368c-0.172-0.171-0.323-0.155-0.317-0.162 0.555 0.076 0.272 3.473-1.024 4.476 -0.413 0.455-1.79 1.805-2.271 2.284C42.358 34.09 41.5 30.358 40.485 29.368zM38.268 38.771c1.558 1.928 1.78 4.979 1.446 5.314 -0.309 2.233-0.127 1.246-0.558 3.614C41.32 45.208 42.168 41.147 38.268 38.771zM36.367 42.47c1.185 0.987 0.939 5.241-0.761 6.122C38.497 48.388 38.726 43.236 36.367 42.47zM32.691 42.98c1.353 1.627 0.405 2.484-3.802 7.27C33.319 48.206 35.744 44.46 32.691 42.98zM32.691 55.097c2.448 1.836 0.636 6.208-0.381 7.269C35.531 60.846 36.123 55.928 32.691 55.097zM36.747 59.178c1.534 0.44-0.776 4.06-1.648 5.101C37.811 62.885 39.197 59.095 36.747 59.178zM79.428 17.256c0.258 2.781-2.367 5.437-2.882 5.956C80.154 22.118 80.116 18.763 79.428 17.256zM120.893 18.134c0 0-1.006-1.314-1.76-2.405 0.485 2.857 2.174 5.255 5.07 5.782C123.805 21.214 120.893 18.54 120.893 18.134zM121.837 15.049c0.377 2.068 1.907 3.618 4.057 3.742C124.583 18.038 123.274 16.978 121.837 15.049zM166.453 68.786c-0.839 1.81-2.587 2.872-3.719 4.761C166.084 71.548 166.283 70.411 166.453 68.786zM165.438 73.887c-1.014 0.524-2.677 1.033-4.395 3.062C163.563 76.018 164.425 74.814 165.438 73.887zM32.944 68.105c0.782 1.301 1.849 2.354 3.042 3.062C35.235 69.891 34.186 68.863 32.944 68.105zM33.283 71.846c1.256 4.162 3.379 3.742 3.379 3.742C35.529 74.953 33.666 72.606 33.283 71.846z" fill="#d9ba97" stroke-width="none" opacity="1" stroke="none"/>
            <path id="SvgjsPath13628" d="M168.08 37.856c0.439-6.042-2.227-13.634-8.619-16.927 -1.242-7.001-8.668-16.365-15.699-15.692 -1.551-7.575-15.768-17.858-22.165-13.458 -4.675-4.112-13.479-6.324-21.624-4.224 -6.935-2.012-17.092-0.073-21.603 4.224 -6.164-4.382-20.718 5.766-22.167 13.458 -6.271-1.292-14.833 9.064-15.688 15.683 -5.429 2.796-9.194 9.783-8.627 16.937 -8.059 4.451-2.987 23.388-0.684 28.263 -0.237 1.117-0.891 3.905-0.762 5.112 0.011 0.459 0.029 0.765 0.039 0.765 0.294 1.02 0.365 1.988 1.783 3.111 -1.767 9.213 8.648 2.297 9.976 11.704 0.668 3.964 0.144 8.049 2.901 11.152 1.391 1.519 3.904 1.903 4.894 1.734 1.933-4.083 0.56-14.696-4.132-21.285 1.653-4.674 0.4-4.524-1.217-7.224 -1.506-2.513 0.361-5.153-0.911-8.692 1.407-4.349 1.496-7.771 1.189-9.316 0.01 0 0.01 0 0-0.01 0.94-2.462 0.88-3.187 3.04-5.479 3.719-4.005 3.097-4.882 3.755-9.192 7.218-1.782 5.407-3.808 12.522-7.778 5.82-3.248 13.681 10.589 20.163 5.931 1.431 1.197 2.509 1.708 4.121 2.347 0.724 0.221 0.59 0.26 1.822 0.469 0.268 0.031 6.23 0.379 6.23 0.102 0.588-0.06 2.819-0.285 3.368-0.561 0.933 0.311 2.433 0.465 3.369 0.561 0 0.01 1.622 0.112 3.229 0.112 3.639 0.142 6.949-1.239 8.932-3.03 7.635 4.975 16.719-9.591 23.073-4.03 5.963 5.219 7.936 5.26 9.635 5.877 0.054 0.33 0.259 2.477 0.386 3.296 1.094 5.448 3.712 4.289 6.398 11.396 -0.203 1.022-0.461 4.964 1.189 9.296 -0.367 1.02-0.627 2.225-0.458 3.611 0.842 8.636-4.333 4.96-1.673 12.314 -3.565 4.975-6.371 14.319-4.149 21.243 0.01 0.011 0.01 0.031 0.018 0.042 7.612 0.869 7.239-9.595 7.795-12.887 1.317-9.33 11.76-2.561 9.985-11.704 1.439-1.147 1.508-2.091 1.772-3.111 0.011 0 0.032-0.306 0.042-0.755 0.135-1.285-0.561-4.111-0.755-5.132C169.89 63.544 176.97 42.763 168.08 37.856zM168.662 64.64c-0.066 0.372-0.266 1.149-0.483 1.745 0.075 0.439 1.065 5.52 0.634 5.52 -0.313 1.021-0.106 1.572-1.517 2.918 1.396 8.56-9.47 1.01-11.043 11.715 -0.932 5.7 0.069 11.547-5.895 12.517 -1.192-5.739 1.433-15.507 4.29-20.477 -2.27-6.842 2.923-3.58 2.049-12.57 -0.159-1.346-0.021-2.284 0.269-3.306 -0.739-2.165-1.521-6.084-1.238-8.764 -2.384-8.027-0.61-3.267-4.884-9.112 -0.018-0.031-0.449-0.785-0.465-0.816l-0.01-0.011c-1.057-2.263-0.765-3.4-1.357-5.897 -0.002 0-5.551-2.566-10.486-6.758 -6.139-5.211-15.494 8.794-23.229 4.809 -3.995 3.086-11.915 2.875-15.313 2 -1.901 0.436-7.221 0.795-10.4 0.143 -0.081-0.017-1.438-0.418-1.506-0.439 -1.102-0.336-2.462-1.079-3.427-1.704 -6.963 4.059-14.429-11.927-21.948-5.806 -4.398 3.581-6.598 6.223-11.739 7.755 -0.396 1.02-0.226 3.548-1.367 5.897v0.011c0 0-0.219 0.767-2.307 2.969 -2.607 2.836-2.287 4.612-3.051 6.968 0.282 2.692-0.469 6.161-1.229 8.765 1.031 3.708-1.207 6.535 1.436 9.886 2.151 2.793 1.439 3.041 0.883 5.989 2.547 4.477 5.584 14.194 4.279 20.478 -10.286-1.63-0.016-17.209-12.887-19.346 -1.931-0.3-3.292-0.333-3.823-1.836 -0.31-0.895-0.318-2.528-0.229-3.062 -1.387-1.429-1.216-1.897-1.504-2.918 -0.504 0 0.623-5.02 0.623-5.509 -0.374-1.021-7.082-23.671 0.742-28.518 0-7.009 3.865-13.862 8.411-16.672 0.049-0.204 0.107-0.408 0.168-0.623 0-0.01 0.009-0.02 0.009-0.03 1.941-6.005 9.653-15.581 15.699-14.774 1.413-6.243 15.997-17.535 21.86-13.54 6.708-4.132 14.734-5.069 21.296-3.713 8.431-1.547 16.608 0.454 21.314 3.713 5.643-3.844 19.766 6.539 21.861 13.54 6.383-0.851 14.061 9.505 15.708 14.794v0.01c0.06 0.215 0.121 0.419 0.179 0.623 5.865 4.039 7.521 9 8.379 16.295 0 0.117 0.021 0.191 0.021 0.367C174.08 42.33 170.504 55.007 168.662 64.64z" fill="#9c692e" stroke-width="none" opacity="1" stroke="none"/>
          </g>
          <g id="svga-group-glasses-single-move" transform="matrix(1,0,0,1,0,0)">
            <g id="svga-group-glasses-single" transform="matrix(1,0,0,1,0,0)">
              <path id="SvgjsPath13591" d="M100,18.13L100,18.13L100,18.13L100,18.13z" fill="#26120b" stroke-width="none" opacity="1"/>
            </g>
          </g>
        </g>
      </g>
    </g>
    <rect id="SvgjsRect13440" width="200" height="15" x="0" y="185" fill="#ecf0f1" opacity="0.5" style="display: none;"/>
    <text id="SvgjsText13441" font-family="Roboto, Helvetica, Arial, sans-serif" font-size="10px" text-anchor="start" font-weight="400" anchor="start" fill="#333333" x="38.734375" y="182.4296875" style="display: none;">
      <tspan id="SvgjsTspan13442" dy="13" x="38.734375">Created on svgAvatars.com</tspan>
    </text>
  </g>
</svg>
